<?xml version="1.0" encoding="utf-8" standalone="no"?>
<!DOCTYPE svg PUBLIC "-//W3C//DTD SVG 1.1//EN"
  "http://www.w3.org/Graphics/SVG/1.1/DTD/svg11.dtd">
<svg xmlns:xlink="http://www.w3.org/1999/xlink" width="1152pt" height="648pt" viewBox="0 0 1152 648" xmlns="http://www.w3.org/2000/svg" version="1.1">
 <metadata>
  <rdf:RDF xmlns:dc="http://purl.org/dc/elements/1.1/" xmlns:cc="http://creativecommons.org/ns#" xmlns:rdf="http://www.w3.org/1999/02/22-rdf-syntax-ns#">
   <cc:Work>
    <dc:type rdf:resource="http://purl.org/dc/dcmitype/StillImage"/>
    <dc:date>2039-05-18T22:55:51.237060</dc:date>
    <dc:format>image/svg+xml</dc:format>
    <dc:creator>
     <cc:Agent>
      <dc:title>Matplotlib v3.5.2, https://matplotlib.org/</dc:title>
     </cc:Agent>
    </dc:creator>
   </cc:Work>
  </rdf:RDF>
 </metadata>
 <defs>
  <style type="text/css">*{stroke-linejoin: round; stroke-linecap: butt}</style>
 </defs>
 <g id="figure_1">
  <g id="patch_1">
   <path d="M 0 648 
L 1152 648 
L 1152 0 
L 0 0 
z
" style="fill: #ffffff"/>
  </g>
  <g id="axes_1">
   <g id="patch_2">
    <path d="M 92.425 255.45 
L 1125 255.45 
L 1125 47.7 
L 92.425 47.7 
z
" style="fill: #ffffff"/>
   </g>
   <g id="matplotlib.axis_1">
    <g id="xtick_1">
     <g id="line2d_1">
      <path d="M 121.97681 255.45 
L 121.97681 47.7 
" clip-path="url(#p82e3a1d3bc)" style="fill: none; stroke: #b0b0b0; stroke-width: 0.8; stroke-linecap: square"/>
     </g>
     <g id="line2d_2">
      <defs>
       <path id="mebea93985a" d="M 0 0 
L 0 3.5 
" style="stroke: #000000; stroke-width: 0.8"/>
      </defs>
      <g>
       <use xlink:href="#mebea93985a" x="121.97681" y="255.45" style="stroke: #000000; stroke-width: 0.8"/>
      </g>
     </g>
     <g id="text_1">
      <!-- 0 -->
      <g transform="translate(118.79556 270.048437)scale(0.1 -0.1)">
       <defs>
        <path id="DejaVuSans-30" d="M 2034 4250 
Q 1547 4250 1301 3770 
Q 1056 3291 1056 2328 
Q 1056 1369 1301 889 
Q 1547 409 2034 409 
Q 2525 409 2770 889 
Q 3016 1369 3016 2328 
Q 3016 3291 2770 3770 
Q 2525 4250 2034 4250 
z
M 2034 4750 
Q 2819 4750 3233 4129 
Q 3647 3509 3647 2328 
Q 3647 1150 3233 529 
Q 2819 -91 2034 -91 
Q 1250 -91 836 529 
Q 422 1150 422 2328 
Q 422 3509 836 4129 
Q 1250 4750 2034 4750 
z
" transform="scale(0.015625)"/>
       </defs>
       <use xlink:href="#DejaVuSans-30"/>
      </g>
     </g>
    </g>
    <g id="xtick_2">
     <g id="line2d_3">
      <path d="M 330.57782 255.45 
L 330.57782 47.7 
" clip-path="url(#p82e3a1d3bc)" style="fill: none; stroke: #b0b0b0; stroke-width: 0.8; stroke-linecap: square"/>
     </g>
     <g id="line2d_4">
      <g>
       <use xlink:href="#mebea93985a" x="330.57782" y="255.45" style="stroke: #000000; stroke-width: 0.8"/>
      </g>
     </g>
     <g id="text_2">
      <!-- 24 -->
      <g transform="translate(324.21532 270.048437)scale(0.1 -0.1)">
       <defs>
        <path id="DejaVuSans-32" d="M 1228 531 
L 3431 531 
L 3431 0 
L 469 0 
L 469 531 
Q 828 903 1448 1529 
Q 2069 2156 2228 2338 
Q 2531 2678 2651 2914 
Q 2772 3150 2772 3378 
Q 2772 3750 2511 3984 
Q 2250 4219 1831 4219 
Q 1534 4219 1204 4116 
Q 875 4013 500 3803 
L 500 4441 
Q 881 4594 1212 4672 
Q 1544 4750 1819 4750 
Q 2544 4750 2975 4387 
Q 3406 4025 3406 3419 
Q 3406 3131 3298 2873 
Q 3191 2616 2906 2266 
Q 2828 2175 2409 1742 
Q 1991 1309 1228 531 
z
" transform="scale(0.015625)"/>
        <path id="DejaVuSans-34" d="M 2419 4116 
L 825 1625 
L 2419 1625 
L 2419 4116 
z
M 2253 4666 
L 3047 4666 
L 3047 1625 
L 3713 1625 
L 3713 1100 
L 3047 1100 
L 3047 0 
L 2419 0 
L 2419 1100 
L 313 1100 
L 313 1709 
L 2253 4666 
z
" transform="scale(0.015625)"/>
       </defs>
       <use xlink:href="#DejaVuSans-32"/>
       <use xlink:href="#DejaVuSans-34" x="63.623047"/>
      </g>
     </g>
    </g>
    <g id="xtick_3">
     <g id="line2d_5">
      <path d="M 539.17883 255.45 
L 539.17883 47.7 
" clip-path="url(#p82e3a1d3bc)" style="fill: none; stroke: #b0b0b0; stroke-width: 0.8; stroke-linecap: square"/>
     </g>
     <g id="line2d_6">
      <g>
       <use xlink:href="#mebea93985a" x="539.17883" y="255.45" style="stroke: #000000; stroke-width: 0.8"/>
      </g>
     </g>
     <g id="text_3">
      <!-- 48 -->
      <g transform="translate(532.81633 270.048437)scale(0.1 -0.1)">
       <defs>
        <path id="DejaVuSans-38" d="M 2034 2216 
Q 1584 2216 1326 1975 
Q 1069 1734 1069 1313 
Q 1069 891 1326 650 
Q 1584 409 2034 409 
Q 2484 409 2743 651 
Q 3003 894 3003 1313 
Q 3003 1734 2745 1975 
Q 2488 2216 2034 2216 
z
M 1403 2484 
Q 997 2584 770 2862 
Q 544 3141 544 3541 
Q 544 4100 942 4425 
Q 1341 4750 2034 4750 
Q 2731 4750 3128 4425 
Q 3525 4100 3525 3541 
Q 3525 3141 3298 2862 
Q 3072 2584 2669 2484 
Q 3125 2378 3379 2068 
Q 3634 1759 3634 1313 
Q 3634 634 3220 271 
Q 2806 -91 2034 -91 
Q 1263 -91 848 271 
Q 434 634 434 1313 
Q 434 1759 690 2068 
Q 947 2378 1403 2484 
z
M 1172 3481 
Q 1172 3119 1398 2916 
Q 1625 2713 2034 2713 
Q 2441 2713 2670 2916 
Q 2900 3119 2900 3481 
Q 2900 3844 2670 4047 
Q 2441 4250 2034 4250 
Q 1625 4250 1398 4047 
Q 1172 3844 1172 3481 
z
" transform="scale(0.015625)"/>
       </defs>
       <use xlink:href="#DejaVuSans-34"/>
       <use xlink:href="#DejaVuSans-38" x="63.623047"/>
      </g>
     </g>
    </g>
    <g id="xtick_4">
     <g id="line2d_7">
      <path d="M 747.77984 255.45 
L 747.77984 47.7 
" clip-path="url(#p82e3a1d3bc)" style="fill: none; stroke: #b0b0b0; stroke-width: 0.8; stroke-linecap: square"/>
     </g>
     <g id="line2d_8">
      <g>
       <use xlink:href="#mebea93985a" x="747.77984" y="255.45" style="stroke: #000000; stroke-width: 0.8"/>
      </g>
     </g>
     <g id="text_4">
      <!-- 72 -->
      <g transform="translate(741.41734 270.048437)scale(0.1 -0.1)">
       <defs>
        <path id="DejaVuSans-37" d="M 525 4666 
L 3525 4666 
L 3525 4397 
L 1831 0 
L 1172 0 
L 2766 4134 
L 525 4134 
L 525 4666 
z
" transform="scale(0.015625)"/>
       </defs>
       <use xlink:href="#DejaVuSans-37"/>
       <use xlink:href="#DejaVuSans-32" x="63.623047"/>
      </g>
     </g>
    </g>
    <g id="xtick_5">
     <g id="line2d_9">
      <path d="M 956.38085 255.45 
L 956.38085 47.7 
" clip-path="url(#p82e3a1d3bc)" style="fill: none; stroke: #b0b0b0; stroke-width: 0.8; stroke-linecap: square"/>
     </g>
     <g id="line2d_10">
      <g>
       <use xlink:href="#mebea93985a" x="956.38085" y="255.45" style="stroke: #000000; stroke-width: 0.8"/>
      </g>
     </g>
     <g id="text_5">
      <!-- 96 -->
      <g transform="translate(950.01835 270.048437)scale(0.1 -0.1)">
       <defs>
        <path id="DejaVuSans-39" d="M 703 97 
L 703 672 
Q 941 559 1184 500 
Q 1428 441 1663 441 
Q 2288 441 2617 861 
Q 2947 1281 2994 2138 
Q 2813 1869 2534 1725 
Q 2256 1581 1919 1581 
Q 1219 1581 811 2004 
Q 403 2428 403 3163 
Q 403 3881 828 4315 
Q 1253 4750 1959 4750 
Q 2769 4750 3195 4129 
Q 3622 3509 3622 2328 
Q 3622 1225 3098 567 
Q 2575 -91 1691 -91 
Q 1453 -91 1209 -44 
Q 966 3 703 97 
z
M 1959 2075 
Q 2384 2075 2632 2365 
Q 2881 2656 2881 3163 
Q 2881 3666 2632 3958 
Q 2384 4250 1959 4250 
Q 1534 4250 1286 3958 
Q 1038 3666 1038 3163 
Q 1038 2656 1286 2365 
Q 1534 2075 1959 2075 
z
" transform="scale(0.015625)"/>
        <path id="DejaVuSans-36" d="M 2113 2584 
Q 1688 2584 1439 2293 
Q 1191 2003 1191 1497 
Q 1191 994 1439 701 
Q 1688 409 2113 409 
Q 2538 409 2786 701 
Q 3034 994 3034 1497 
Q 3034 2003 2786 2293 
Q 2538 2584 2113 2584 
z
M 3366 4563 
L 3366 3988 
Q 3128 4100 2886 4159 
Q 2644 4219 2406 4219 
Q 1781 4219 1451 3797 
Q 1122 3375 1075 2522 
Q 1259 2794 1537 2939 
Q 1816 3084 2150 3084 
Q 2853 3084 3261 2657 
Q 3669 2231 3669 1497 
Q 3669 778 3244 343 
Q 2819 -91 2113 -91 
Q 1303 -91 875 529 
Q 447 1150 447 2328 
Q 447 3434 972 4092 
Q 1497 4750 2381 4750 
Q 2619 4750 2861 4703 
Q 3103 4656 3366 4563 
z
" transform="scale(0.015625)"/>
       </defs>
       <use xlink:href="#DejaVuSans-39"/>
       <use xlink:href="#DejaVuSans-36" x="63.623047"/>
      </g>
     </g>
    </g>
    <g id="xtick_6">
     <g id="line2d_11">
      <defs>
       <path id="m657355b84b" d="M 0 0 
L 0 2 
" style="stroke: #000000; stroke-width: 0.6"/>
      </defs>
      <g>
       <use xlink:href="#m657355b84b" x="139.360227" y="255.45" style="stroke: #000000; stroke-width: 0.6"/>
      </g>
     </g>
    </g>
    <g id="xtick_7">
     <g id="line2d_12">
      <g>
       <use xlink:href="#m657355b84b" x="165.435354" y="255.45" style="stroke: #000000; stroke-width: 0.6"/>
      </g>
     </g>
    </g>
    <g id="xtick_8">
     <g id="line2d_13">
      <g>
       <use xlink:href="#m657355b84b" x="191.51048" y="255.45" style="stroke: #000000; stroke-width: 0.6"/>
      </g>
     </g>
    </g>
    <g id="xtick_9">
     <g id="line2d_14">
      <g>
       <use xlink:href="#m657355b84b" x="217.585606" y="255.45" style="stroke: #000000; stroke-width: 0.6"/>
      </g>
     </g>
    </g>
    <g id="xtick_10">
     <g id="line2d_15">
      <g>
       <use xlink:href="#m657355b84b" x="243.660732" y="255.45" style="stroke: #000000; stroke-width: 0.6"/>
      </g>
     </g>
    </g>
    <g id="xtick_11">
     <g id="line2d_16">
      <g>
       <use xlink:href="#m657355b84b" x="269.735859" y="255.45" style="stroke: #000000; stroke-width: 0.6"/>
      </g>
     </g>
    </g>
    <g id="xtick_12">
     <g id="line2d_17">
      <g>
       <use xlink:href="#m657355b84b" x="295.810985" y="255.45" style="stroke: #000000; stroke-width: 0.6"/>
      </g>
     </g>
    </g>
    <g id="xtick_13">
     <g id="line2d_18">
      <g>
       <use xlink:href="#m657355b84b" x="321.886111" y="255.45" style="stroke: #000000; stroke-width: 0.6"/>
      </g>
     </g>
    </g>
    <g id="xtick_14">
     <g id="line2d_19">
      <g>
       <use xlink:href="#m657355b84b" x="347.961237" y="255.45" style="stroke: #000000; stroke-width: 0.6"/>
      </g>
     </g>
    </g>
    <g id="xtick_15">
     <g id="line2d_20">
      <g>
       <use xlink:href="#m657355b84b" x="374.036364" y="255.45" style="stroke: #000000; stroke-width: 0.6"/>
      </g>
     </g>
    </g>
    <g id="xtick_16">
     <g id="line2d_21">
      <g>
       <use xlink:href="#m657355b84b" x="400.11149" y="255.45" style="stroke: #000000; stroke-width: 0.6"/>
      </g>
     </g>
    </g>
    <g id="xtick_17">
     <g id="line2d_22">
      <g>
       <use xlink:href="#m657355b84b" x="426.186616" y="255.45" style="stroke: #000000; stroke-width: 0.6"/>
      </g>
     </g>
    </g>
    <g id="xtick_18">
     <g id="line2d_23">
      <g>
       <use xlink:href="#m657355b84b" x="452.261742" y="255.45" style="stroke: #000000; stroke-width: 0.6"/>
      </g>
     </g>
    </g>
    <g id="xtick_19">
     <g id="line2d_24">
      <g>
       <use xlink:href="#m657355b84b" x="478.336869" y="255.45" style="stroke: #000000; stroke-width: 0.6"/>
      </g>
     </g>
    </g>
    <g id="xtick_20">
     <g id="line2d_25">
      <g>
       <use xlink:href="#m657355b84b" x="504.411995" y="255.45" style="stroke: #000000; stroke-width: 0.6"/>
      </g>
     </g>
    </g>
    <g id="xtick_21">
     <g id="line2d_26">
      <g>
       <use xlink:href="#m657355b84b" x="530.487121" y="255.45" style="stroke: #000000; stroke-width: 0.6"/>
      </g>
     </g>
    </g>
    <g id="xtick_22">
     <g id="line2d_27">
      <g>
       <use xlink:href="#m657355b84b" x="556.562247" y="255.45" style="stroke: #000000; stroke-width: 0.6"/>
      </g>
     </g>
    </g>
    <g id="xtick_23">
     <g id="line2d_28">
      <g>
       <use xlink:href="#m657355b84b" x="582.637374" y="255.45" style="stroke: #000000; stroke-width: 0.6"/>
      </g>
     </g>
    </g>
    <g id="xtick_24">
     <g id="line2d_29">
      <g>
       <use xlink:href="#m657355b84b" x="608.7125" y="255.45" style="stroke: #000000; stroke-width: 0.6"/>
      </g>
     </g>
    </g>
    <g id="xtick_25">
     <g id="line2d_30">
      <g>
       <use xlink:href="#m657355b84b" x="634.787626" y="255.45" style="stroke: #000000; stroke-width: 0.6"/>
      </g>
     </g>
    </g>
    <g id="xtick_26">
     <g id="line2d_31">
      <g>
       <use xlink:href="#m657355b84b" x="660.862753" y="255.45" style="stroke: #000000; stroke-width: 0.6"/>
      </g>
     </g>
    </g>
    <g id="xtick_27">
     <g id="line2d_32">
      <g>
       <use xlink:href="#m657355b84b" x="686.937879" y="255.45" style="stroke: #000000; stroke-width: 0.6"/>
      </g>
     </g>
    </g>
    <g id="xtick_28">
     <g id="line2d_33">
      <g>
       <use xlink:href="#m657355b84b" x="713.013005" y="255.45" style="stroke: #000000; stroke-width: 0.6"/>
      </g>
     </g>
    </g>
    <g id="xtick_29">
     <g id="line2d_34">
      <g>
       <use xlink:href="#m657355b84b" x="739.088131" y="255.45" style="stroke: #000000; stroke-width: 0.6"/>
      </g>
     </g>
    </g>
    <g id="xtick_30">
     <g id="line2d_35">
      <g>
       <use xlink:href="#m657355b84b" x="765.163258" y="255.45" style="stroke: #000000; stroke-width: 0.6"/>
      </g>
     </g>
    </g>
    <g id="xtick_31">
     <g id="line2d_36">
      <g>
       <use xlink:href="#m657355b84b" x="791.238384" y="255.45" style="stroke: #000000; stroke-width: 0.6"/>
      </g>
     </g>
    </g>
    <g id="xtick_32">
     <g id="line2d_37">
      <g>
       <use xlink:href="#m657355b84b" x="817.31351" y="255.45" style="stroke: #000000; stroke-width: 0.6"/>
      </g>
     </g>
    </g>
    <g id="xtick_33">
     <g id="line2d_38">
      <g>
       <use xlink:href="#m657355b84b" x="843.388636" y="255.45" style="stroke: #000000; stroke-width: 0.6"/>
      </g>
     </g>
    </g>
    <g id="xtick_34">
     <g id="line2d_39">
      <g>
       <use xlink:href="#m657355b84b" x="869.463763" y="255.45" style="stroke: #000000; stroke-width: 0.6"/>
      </g>
     </g>
    </g>
    <g id="xtick_35">
     <g id="line2d_40">
      <g>
       <use xlink:href="#m657355b84b" x="895.538889" y="255.45" style="stroke: #000000; stroke-width: 0.6"/>
      </g>
     </g>
    </g>
    <g id="xtick_36">
     <g id="line2d_41">
      <g>
       <use xlink:href="#m657355b84b" x="921.614015" y="255.45" style="stroke: #000000; stroke-width: 0.6"/>
      </g>
     </g>
    </g>
    <g id="xtick_37">
     <g id="line2d_42">
      <g>
       <use xlink:href="#m657355b84b" x="947.689141" y="255.45" style="stroke: #000000; stroke-width: 0.6"/>
      </g>
     </g>
    </g>
    <g id="xtick_38">
     <g id="line2d_43">
      <g>
       <use xlink:href="#m657355b84b" x="973.764268" y="255.45" style="stroke: #000000; stroke-width: 0.6"/>
      </g>
     </g>
    </g>
    <g id="xtick_39">
     <g id="line2d_44">
      <g>
       <use xlink:href="#m657355b84b" x="999.839394" y="255.45" style="stroke: #000000; stroke-width: 0.6"/>
      </g>
     </g>
    </g>
    <g id="xtick_40">
     <g id="line2d_45">
      <g>
       <use xlink:href="#m657355b84b" x="1025.91452" y="255.45" style="stroke: #000000; stroke-width: 0.6"/>
      </g>
     </g>
    </g>
    <g id="xtick_41">
     <g id="line2d_46">
      <g>
       <use xlink:href="#m657355b84b" x="1051.989646" y="255.45" style="stroke: #000000; stroke-width: 0.6"/>
      </g>
     </g>
    </g>
    <g id="xtick_42">
     <g id="line2d_47">
      <g>
       <use xlink:href="#m657355b84b" x="1078.064773" y="255.45" style="stroke: #000000; stroke-width: 0.6"/>
      </g>
     </g>
    </g>
    <g id="text_6">
     <!-- Temps (en heures) -->
     <g transform="translate(562.419531 283.726562)scale(0.1 -0.1)">
      <defs>
       <path id="DejaVuSans-54" d="M -19 4666 
L 3928 4666 
L 3928 4134 
L 2272 4134 
L 2272 0 
L 1638 0 
L 1638 4134 
L -19 4134 
L -19 4666 
z
" transform="scale(0.015625)"/>
       <path id="DejaVuSans-65" d="M 3597 1894 
L 3597 1613 
L 953 1613 
Q 991 1019 1311 708 
Q 1631 397 2203 397 
Q 2534 397 2845 478 
Q 3156 559 3463 722 
L 3463 178 
Q 3153 47 2828 -22 
Q 2503 -91 2169 -91 
Q 1331 -91 842 396 
Q 353 884 353 1716 
Q 353 2575 817 3079 
Q 1281 3584 2069 3584 
Q 2775 3584 3186 3129 
Q 3597 2675 3597 1894 
z
M 3022 2063 
Q 3016 2534 2758 2815 
Q 2500 3097 2075 3097 
Q 1594 3097 1305 2825 
Q 1016 2553 972 2059 
L 3022 2063 
z
" transform="scale(0.015625)"/>
       <path id="DejaVuSans-6d" d="M 3328 2828 
Q 3544 3216 3844 3400 
Q 4144 3584 4550 3584 
Q 5097 3584 5394 3201 
Q 5691 2819 5691 2113 
L 5691 0 
L 5113 0 
L 5113 2094 
Q 5113 2597 4934 2840 
Q 4756 3084 4391 3084 
Q 3944 3084 3684 2787 
Q 3425 2491 3425 1978 
L 3425 0 
L 2847 0 
L 2847 2094 
Q 2847 2600 2669 2842 
Q 2491 3084 2119 3084 
Q 1678 3084 1418 2786 
Q 1159 2488 1159 1978 
L 1159 0 
L 581 0 
L 581 3500 
L 1159 3500 
L 1159 2956 
Q 1356 3278 1631 3431 
Q 1906 3584 2284 3584 
Q 2666 3584 2933 3390 
Q 3200 3197 3328 2828 
z
" transform="scale(0.015625)"/>
       <path id="DejaVuSans-70" d="M 1159 525 
L 1159 -1331 
L 581 -1331 
L 581 3500 
L 1159 3500 
L 1159 2969 
Q 1341 3281 1617 3432 
Q 1894 3584 2278 3584 
Q 2916 3584 3314 3078 
Q 3713 2572 3713 1747 
Q 3713 922 3314 415 
Q 2916 -91 2278 -91 
Q 1894 -91 1617 61 
Q 1341 213 1159 525 
z
M 3116 1747 
Q 3116 2381 2855 2742 
Q 2594 3103 2138 3103 
Q 1681 3103 1420 2742 
Q 1159 2381 1159 1747 
Q 1159 1113 1420 752 
Q 1681 391 2138 391 
Q 2594 391 2855 752 
Q 3116 1113 3116 1747 
z
" transform="scale(0.015625)"/>
       <path id="DejaVuSans-73" d="M 2834 3397 
L 2834 2853 
Q 2591 2978 2328 3040 
Q 2066 3103 1784 3103 
Q 1356 3103 1142 2972 
Q 928 2841 928 2578 
Q 928 2378 1081 2264 
Q 1234 2150 1697 2047 
L 1894 2003 
Q 2506 1872 2764 1633 
Q 3022 1394 3022 966 
Q 3022 478 2636 193 
Q 2250 -91 1575 -91 
Q 1294 -91 989 -36 
Q 684 19 347 128 
L 347 722 
Q 666 556 975 473 
Q 1284 391 1588 391 
Q 1994 391 2212 530 
Q 2431 669 2431 922 
Q 2431 1156 2273 1281 
Q 2116 1406 1581 1522 
L 1381 1569 
Q 847 1681 609 1914 
Q 372 2147 372 2553 
Q 372 3047 722 3315 
Q 1072 3584 1716 3584 
Q 2034 3584 2315 3537 
Q 2597 3491 2834 3397 
z
" transform="scale(0.015625)"/>
       <path id="DejaVuSans-20" transform="scale(0.015625)"/>
       <path id="DejaVuSans-28" d="M 1984 4856 
Q 1566 4138 1362 3434 
Q 1159 2731 1159 2009 
Q 1159 1288 1364 580 
Q 1569 -128 1984 -844 
L 1484 -844 
Q 1016 -109 783 600 
Q 550 1309 550 2009 
Q 550 2706 781 3412 
Q 1013 4119 1484 4856 
L 1984 4856 
z
" transform="scale(0.015625)"/>
       <path id="DejaVuSans-6e" d="M 3513 2113 
L 3513 0 
L 2938 0 
L 2938 2094 
Q 2938 2591 2744 2837 
Q 2550 3084 2163 3084 
Q 1697 3084 1428 2787 
Q 1159 2491 1159 1978 
L 1159 0 
L 581 0 
L 581 3500 
L 1159 3500 
L 1159 2956 
Q 1366 3272 1645 3428 
Q 1925 3584 2291 3584 
Q 2894 3584 3203 3211 
Q 3513 2838 3513 2113 
z
" transform="scale(0.015625)"/>
       <path id="DejaVuSans-68" d="M 3513 2113 
L 3513 0 
L 2938 0 
L 2938 2094 
Q 2938 2591 2744 2837 
Q 2550 3084 2163 3084 
Q 1697 3084 1428 2787 
Q 1159 2491 1159 1978 
L 1159 0 
L 581 0 
L 581 4863 
L 1159 4863 
L 1159 2956 
Q 1366 3272 1645 3428 
Q 1925 3584 2291 3584 
Q 2894 3584 3203 3211 
Q 3513 2838 3513 2113 
z
" transform="scale(0.015625)"/>
       <path id="DejaVuSans-75" d="M 544 1381 
L 544 3500 
L 1119 3500 
L 1119 1403 
Q 1119 906 1312 657 
Q 1506 409 1894 409 
Q 2359 409 2629 706 
Q 2900 1003 2900 1516 
L 2900 3500 
L 3475 3500 
L 3475 0 
L 2900 0 
L 2900 538 
Q 2691 219 2414 64 
Q 2138 -91 1772 -91 
Q 1169 -91 856 284 
Q 544 659 544 1381 
z
M 1991 3584 
L 1991 3584 
z
" transform="scale(0.015625)"/>
       <path id="DejaVuSans-72" d="M 2631 2963 
Q 2534 3019 2420 3045 
Q 2306 3072 2169 3072 
Q 1681 3072 1420 2755 
Q 1159 2438 1159 1844 
L 1159 0 
L 581 0 
L 581 3500 
L 1159 3500 
L 1159 2956 
Q 1341 3275 1631 3429 
Q 1922 3584 2338 3584 
Q 2397 3584 2469 3576 
Q 2541 3569 2628 3553 
L 2631 2963 
z
" transform="scale(0.015625)"/>
       <path id="DejaVuSans-29" d="M 513 4856 
L 1013 4856 
Q 1481 4119 1714 3412 
Q 1947 2706 1947 2009 
Q 1947 1309 1714 600 
Q 1481 -109 1013 -844 
L 513 -844 
Q 928 -128 1133 580 
Q 1338 1288 1338 2009 
Q 1338 2731 1133 3434 
Q 928 4138 513 4856 
z
" transform="scale(0.015625)"/>
      </defs>
      <use xlink:href="#DejaVuSans-54"/>
      <use xlink:href="#DejaVuSans-65" x="44.083984"/>
      <use xlink:href="#DejaVuSans-6d" x="105.607422"/>
      <use xlink:href="#DejaVuSans-70" x="203.019531"/>
      <use xlink:href="#DejaVuSans-73" x="266.496094"/>
      <use xlink:href="#DejaVuSans-20" x="318.595703"/>
      <use xlink:href="#DejaVuSans-28" x="350.382812"/>
      <use xlink:href="#DejaVuSans-65" x="389.396484"/>
      <use xlink:href="#DejaVuSans-6e" x="450.919922"/>
      <use xlink:href="#DejaVuSans-20" x="514.298828"/>
      <use xlink:href="#DejaVuSans-68" x="546.085938"/>
      <use xlink:href="#DejaVuSans-65" x="609.464844"/>
      <use xlink:href="#DejaVuSans-75" x="670.988281"/>
      <use xlink:href="#DejaVuSans-72" x="734.367188"/>
      <use xlink:href="#DejaVuSans-65" x="773.230469"/>
      <use xlink:href="#DejaVuSans-73" x="834.753906"/>
      <use xlink:href="#DejaVuSans-29" x="886.853516"/>
     </g>
    </g>
   </g>
   <g id="matplotlib.axis_2">
    <g id="ytick_1">
     <g id="line2d_48">
      <path d="M 92.425 217.059936 
L 1125 217.059936 
" clip-path="url(#p82e3a1d3bc)" style="fill: none; stroke: #b0b0b0; stroke-width: 0.8; stroke-linecap: square"/>
     </g>
     <g id="line2d_49">
      <defs>
       <path id="mc544359dfe" d="M 0 0 
L -3.5 0 
" style="stroke: #000000; stroke-width: 0.8"/>
      </defs>
      <g>
       <use xlink:href="#mc544359dfe" x="92.425" y="217.059936" style="stroke: #000000; stroke-width: 0.8"/>
      </g>
     </g>
     <g id="text_7">
      <!-- 20 -->
      <g transform="translate(72.7 220.859155)scale(0.1 -0.1)">
       <use xlink:href="#DejaVuSans-32"/>
       <use xlink:href="#DejaVuSans-30" x="63.623047"/>
      </g>
     </g>
    </g>
    <g id="ytick_2">
     <g id="line2d_50">
      <path d="M 92.425 177.676423 
L 1125 177.676423 
" clip-path="url(#p82e3a1d3bc)" style="fill: none; stroke: #b0b0b0; stroke-width: 0.8; stroke-linecap: square"/>
     </g>
     <g id="line2d_51">
      <g>
       <use xlink:href="#mc544359dfe" x="92.425" y="177.676423" style="stroke: #000000; stroke-width: 0.8"/>
      </g>
     </g>
     <g id="text_8">
      <!-- 40 -->
      <g transform="translate(72.7 181.475642)scale(0.1 -0.1)">
       <use xlink:href="#DejaVuSans-34"/>
       <use xlink:href="#DejaVuSans-30" x="63.623047"/>
      </g>
     </g>
    </g>
    <g id="ytick_3">
     <g id="line2d_52">
      <path d="M 92.425 138.29291 
L 1125 138.29291 
" clip-path="url(#p82e3a1d3bc)" style="fill: none; stroke: #b0b0b0; stroke-width: 0.8; stroke-linecap: square"/>
     </g>
     <g id="line2d_53">
      <g>
       <use xlink:href="#mc544359dfe" x="92.425" y="138.29291" style="stroke: #000000; stroke-width: 0.8"/>
      </g>
     </g>
     <g id="text_9">
      <!-- 60 -->
      <g transform="translate(72.7 142.092129)scale(0.1 -0.1)">
       <use xlink:href="#DejaVuSans-36"/>
       <use xlink:href="#DejaVuSans-30" x="63.623047"/>
      </g>
     </g>
    </g>
    <g id="ytick_4">
     <g id="line2d_54">
      <path d="M 92.425 98.909397 
L 1125 98.909397 
" clip-path="url(#p82e3a1d3bc)" style="fill: none; stroke: #b0b0b0; stroke-width: 0.8; stroke-linecap: square"/>
     </g>
     <g id="line2d_55">
      <g>
       <use xlink:href="#mc544359dfe" x="92.425" y="98.909397" style="stroke: #000000; stroke-width: 0.8"/>
      </g>
     </g>
     <g id="text_10">
      <!-- 80 -->
      <g transform="translate(72.7 102.708616)scale(0.1 -0.1)">
       <use xlink:href="#DejaVuSans-38"/>
       <use xlink:href="#DejaVuSans-30" x="63.623047"/>
      </g>
     </g>
    </g>
    <g id="ytick_5">
     <g id="line2d_56">
      <path d="M 92.425 59.525884 
L 1125 59.525884 
" clip-path="url(#p82e3a1d3bc)" style="fill: none; stroke: #b0b0b0; stroke-width: 0.8; stroke-linecap: square"/>
     </g>
     <g id="line2d_57">
      <g>
       <use xlink:href="#mc544359dfe" x="92.425" y="59.525884" style="stroke: #000000; stroke-width: 0.8"/>
      </g>
     </g>
     <g id="text_11">
      <!-- 100 -->
      <g transform="translate(66.3375 63.325103)scale(0.1 -0.1)">
       <defs>
        <path id="DejaVuSans-31" d="M 794 531 
L 1825 531 
L 1825 4091 
L 703 3866 
L 703 4441 
L 1819 4666 
L 2450 4666 
L 2450 531 
L 3481 531 
L 3481 0 
L 794 0 
L 794 531 
z
" transform="scale(0.015625)"/>
       </defs>
       <use xlink:href="#DejaVuSans-31"/>
       <use xlink:href="#DejaVuSans-30" x="63.623047"/>
       <use xlink:href="#DejaVuSans-30" x="127.246094"/>
      </g>
     </g>
    </g>
   </g>
   <g id="line2d_58">
    <path d="M 139.360227 216.863019 
L 165.435354 225.527391 
L 191.51048 237.73628 
L 217.585606 238.720868 
L 243.660732 234.388682 
L 269.735859 229.071908 
L 295.810985 220.604452 
L 321.886111 219.619865 
L 347.961237 221.392123 
L 374.036364 227.693485 
L 400.11149 236.357858 
L 426.186616 235.37327 
L 452.261742 232.813341 
L 478.336869 227.693485 
L 504.411995 221.58904 
L 530.487121 218.241442 
L 556.562247 220.604452 
L 582.637374 227.693485 
L 608.7125 238.917786 
L 634.787626 239.114703 
L 660.862753 236.751693 
L 686.937879 233.207176 
L 713.013005 224.936639 
L 739.088131 222.179793 
L 765.163258 226.511979 
L 791.238384 233.207176 
L 817.31351 245.416065 
L 843.388636 246.006818 
L 869.463763 242.265384 
L 895.538889 235.176352 
L 921.614015 231.434918 
L 947.689141 233.404094 
L 973.764268 224.739721 
L 999.839394 231.631836 
L 1025.91452 234.585599 
L 1051.989646 234.388682 
L 1078.064773 234.388682 
" clip-path="url(#p82e3a1d3bc)" style="fill: none; stroke: #1f77b4; stroke-width: 1.5; stroke-linecap: square"/>
   </g>
   <g id="line2d_59">
    <path d="M 139.360227 152.07714 
L 165.435354 118.601154 
L 191.51048 75.27929 
L 217.585606 77.248465 
L 243.660732 87.094343 
L 269.735859 102.847749 
L 295.810985 136.323735 
L 321.886111 140.262086 
L 347.961237 142.231262 
L 374.036364 118.601154 
L 400.11149 94.971046 
L 426.186616 102.847749 
L 452.261742 116.631978 
L 478.336869 140.262086 
L 504.411995 169.799721 
L 530.487121 177.676423 
L 556.562247 163.892194 
L 582.637374 140.262086 
L 608.7125 102.847749 
L 634.787626 108.755276 
L 660.862753 120.570329 
L 686.937879 128.447032 
L 713.013005 157.984667 
L 739.088131 161.923018 
L 765.163258 146.169613 
L 791.238384 91.032695 
L 817.31351 61.49506 
L 843.388636 61.49506 
L 869.463763 63.464236 
L 895.538889 67.402587 
L 921.614015 83.155992 
L 947.689141 71.340938 
L 973.764268 110.724451 
L 999.839394 79.217641 
L 1025.91452 67.402587 
L 1051.989646 71.340938 
L 1078.064773 67.402587 
" clip-path="url(#p82e3a1d3bc)" style="fill: none; stroke: #ff7f0e; stroke-width: 1.5; stroke-linecap: square"/>
   </g>
   <g id="line2d_60">
    <path d="M 139.360227 57.281024 
L 165.435354 57.143182 
L 191.51048 57.300716 
L 217.585606 57.281024 
L 243.660732 57.202257 
L 269.735859 57.261332 
L 295.810985 57.517325 
L 321.886111 57.655167 
L 347.961237 57.674859 
L 374.036364 57.773318 
L 400.11149 58.108078 
L 426.186616 58.364071 
L 452.261742 58.364071 
L 478.336869 58.482221 
L 504.411995 58.757906 
L 530.487121 58.856365 
L 556.562247 58.698831 
L 582.637374 58.639755 
L 608.7125 58.777598 
L 634.787626 58.797289 
L 660.862753 58.757906 
L 686.937879 58.836673 
L 713.013005 59.092666 
L 739.088131 59.053282 
L 765.163258 58.876056 
L 791.238384 58.895748 
L 817.31351 59.132049 
L 843.388636 59.328967 
L 869.463763 59.36835 
L 895.538889 59.447117 
L 921.614015 59.683418 
L 947.689141 59.70311 
L 973.764268 59.880336 
L 999.839394 59.919719 
L 1025.91452 60.116637 
L 1051.989646 60.234788 
L 1078.064773 60.175712 
" clip-path="url(#p82e3a1d3bc)" style="fill: none; stroke: #2ca02c; stroke-width: 1.5; stroke-linecap: square"/>
   </g>
   <g id="patch_3">
    <path d="M 92.425 255.45 
L 92.425 47.7 
" style="fill: none; stroke: #000000; stroke-width: 0.8; stroke-linejoin: miter; stroke-linecap: square"/>
   </g>
   <g id="patch_4">
    <path d="M 1125 255.45 
L 1125 47.7 
" style="fill: none; stroke: #000000; stroke-width: 0.8; stroke-linejoin: miter; stroke-linecap: square"/>
   </g>
   <g id="patch_5">
    <path d="M 92.425 255.45 
L 1125 255.45 
" style="fill: none; stroke: #000000; stroke-width: 0.8; stroke-linejoin: miter; stroke-linecap: square"/>
   </g>
   <g id="patch_6">
    <path d="M 92.425 47.7 
L 1125 47.7 
" style="fill: none; stroke: #000000; stroke-width: 0.8; stroke-linejoin: miter; stroke-linecap: square"/>
   </g>
   <g id="text_12">
    <!-- Données de Météo France -->
    <g transform="translate(530.548438 41.7)scale(0.12 -0.12)">
     <defs>
      <path id="DejaVuSans-44" d="M 1259 4147 
L 1259 519 
L 2022 519 
Q 2988 519 3436 956 
Q 3884 1394 3884 2338 
Q 3884 3275 3436 3711 
Q 2988 4147 2022 4147 
L 1259 4147 
z
M 628 4666 
L 1925 4666 
Q 3281 4666 3915 4102 
Q 4550 3538 4550 2338 
Q 4550 1131 3912 565 
Q 3275 0 1925 0 
L 628 0 
L 628 4666 
z
" transform="scale(0.015625)"/>
      <path id="DejaVuSans-6f" d="M 1959 3097 
Q 1497 3097 1228 2736 
Q 959 2375 959 1747 
Q 959 1119 1226 758 
Q 1494 397 1959 397 
Q 2419 397 2687 759 
Q 2956 1122 2956 1747 
Q 2956 2369 2687 2733 
Q 2419 3097 1959 3097 
z
M 1959 3584 
Q 2709 3584 3137 3096 
Q 3566 2609 3566 1747 
Q 3566 888 3137 398 
Q 2709 -91 1959 -91 
Q 1206 -91 779 398 
Q 353 888 353 1747 
Q 353 2609 779 3096 
Q 1206 3584 1959 3584 
z
" transform="scale(0.015625)"/>
      <path id="DejaVuSans-e9" d="M 3597 1894 
L 3597 1613 
L 953 1613 
Q 991 1019 1311 708 
Q 1631 397 2203 397 
Q 2534 397 2845 478 
Q 3156 559 3463 722 
L 3463 178 
Q 3153 47 2828 -22 
Q 2503 -91 2169 -91 
Q 1331 -91 842 396 
Q 353 884 353 1716 
Q 353 2575 817 3079 
Q 1281 3584 2069 3584 
Q 2775 3584 3186 3129 
Q 3597 2675 3597 1894 
z
M 3022 2063 
Q 3016 2534 2758 2815 
Q 2500 3097 2075 3097 
Q 1594 3097 1305 2825 
Q 1016 2553 972 2059 
L 3022 2063 
z
M 2469 5119 
L 3091 5119 
L 2072 3944 
L 1594 3944 
L 2469 5119 
z
" transform="scale(0.015625)"/>
      <path id="DejaVuSans-64" d="M 2906 2969 
L 2906 4863 
L 3481 4863 
L 3481 0 
L 2906 0 
L 2906 525 
Q 2725 213 2448 61 
Q 2172 -91 1784 -91 
Q 1150 -91 751 415 
Q 353 922 353 1747 
Q 353 2572 751 3078 
Q 1150 3584 1784 3584 
Q 2172 3584 2448 3432 
Q 2725 3281 2906 2969 
z
M 947 1747 
Q 947 1113 1208 752 
Q 1469 391 1925 391 
Q 2381 391 2643 752 
Q 2906 1113 2906 1747 
Q 2906 2381 2643 2742 
Q 2381 3103 1925 3103 
Q 1469 3103 1208 2742 
Q 947 2381 947 1747 
z
" transform="scale(0.015625)"/>
      <path id="DejaVuSans-4d" d="M 628 4666 
L 1569 4666 
L 2759 1491 
L 3956 4666 
L 4897 4666 
L 4897 0 
L 4281 0 
L 4281 4097 
L 3078 897 
L 2444 897 
L 1241 4097 
L 1241 0 
L 628 0 
L 628 4666 
z
" transform="scale(0.015625)"/>
      <path id="DejaVuSans-74" d="M 1172 4494 
L 1172 3500 
L 2356 3500 
L 2356 3053 
L 1172 3053 
L 1172 1153 
Q 1172 725 1289 603 
Q 1406 481 1766 481 
L 2356 481 
L 2356 0 
L 1766 0 
Q 1100 0 847 248 
Q 594 497 594 1153 
L 594 3053 
L 172 3053 
L 172 3500 
L 594 3500 
L 594 4494 
L 1172 4494 
z
" transform="scale(0.015625)"/>
      <path id="DejaVuSans-46" d="M 628 4666 
L 3309 4666 
L 3309 4134 
L 1259 4134 
L 1259 2759 
L 3109 2759 
L 3109 2228 
L 1259 2228 
L 1259 0 
L 628 0 
L 628 4666 
z
" transform="scale(0.015625)"/>
      <path id="DejaVuSans-61" d="M 2194 1759 
Q 1497 1759 1228 1600 
Q 959 1441 959 1056 
Q 959 750 1161 570 
Q 1363 391 1709 391 
Q 2188 391 2477 730 
Q 2766 1069 2766 1631 
L 2766 1759 
L 2194 1759 
z
M 3341 1997 
L 3341 0 
L 2766 0 
L 2766 531 
Q 2569 213 2275 61 
Q 1981 -91 1556 -91 
Q 1019 -91 701 211 
Q 384 513 384 1019 
Q 384 1609 779 1909 
Q 1175 2209 1959 2209 
L 2766 2209 
L 2766 2266 
Q 2766 2663 2505 2880 
Q 2244 3097 1772 3097 
Q 1472 3097 1187 3025 
Q 903 2953 641 2809 
L 641 3341 
Q 956 3463 1253 3523 
Q 1550 3584 1831 3584 
Q 2591 3584 2966 3190 
Q 3341 2797 3341 1997 
z
" transform="scale(0.015625)"/>
      <path id="DejaVuSans-63" d="M 3122 3366 
L 3122 2828 
Q 2878 2963 2633 3030 
Q 2388 3097 2138 3097 
Q 1578 3097 1268 2742 
Q 959 2388 959 1747 
Q 959 1106 1268 751 
Q 1578 397 2138 397 
Q 2388 397 2633 464 
Q 2878 531 3122 666 
L 3122 134 
Q 2881 22 2623 -34 
Q 2366 -91 2075 -91 
Q 1284 -91 818 406 
Q 353 903 353 1747 
Q 353 2603 823 3093 
Q 1294 3584 2113 3584 
Q 2378 3584 2631 3529 
Q 2884 3475 3122 3366 
z
" transform="scale(0.015625)"/>
     </defs>
     <use xlink:href="#DejaVuSans-44"/>
     <use xlink:href="#DejaVuSans-6f" x="77.001953"/>
     <use xlink:href="#DejaVuSans-6e" x="138.183594"/>
     <use xlink:href="#DejaVuSans-6e" x="201.5625"/>
     <use xlink:href="#DejaVuSans-e9" x="264.941406"/>
     <use xlink:href="#DejaVuSans-65" x="326.464844"/>
     <use xlink:href="#DejaVuSans-73" x="387.988281"/>
     <use xlink:href="#DejaVuSans-20" x="440.087891"/>
     <use xlink:href="#DejaVuSans-64" x="471.875"/>
     <use xlink:href="#DejaVuSans-65" x="535.351562"/>
     <use xlink:href="#DejaVuSans-20" x="596.875"/>
     <use xlink:href="#DejaVuSans-4d" x="628.662109"/>
     <use xlink:href="#DejaVuSans-e9" x="714.941406"/>
     <use xlink:href="#DejaVuSans-74" x="776.464844"/>
     <use xlink:href="#DejaVuSans-e9" x="815.673828"/>
     <use xlink:href="#DejaVuSans-6f" x="877.197266"/>
     <use xlink:href="#DejaVuSans-20" x="938.378906"/>
     <use xlink:href="#DejaVuSans-46" x="970.166016"/>
     <use xlink:href="#DejaVuSans-72" x="1020.435547"/>
     <use xlink:href="#DejaVuSans-61" x="1061.548828"/>
     <use xlink:href="#DejaVuSans-6e" x="1122.828125"/>
     <use xlink:href="#DejaVuSans-63" x="1186.207031"/>
     <use xlink:href="#DejaVuSans-65" x="1241.1875"/>
    </g>
   </g>
  </g>
  <g id="axes_2">
   <g id="patch_7">
    <path d="M 92.425 569.325 
L 1125 569.325 
L 1125 361.575 
L 92.425 361.575 
z
" style="fill: #ffffff"/>
   </g>
   <g id="matplotlib.axis_3">
    <g id="xtick_43">
     <g id="line2d_61">
      <path d="M 121.97681 569.325 
L 121.97681 361.575 
" clip-path="url(#pa528e0ef90)" style="fill: none; stroke: #b0b0b0; stroke-width: 0.8; stroke-linecap: square"/>
     </g>
     <g id="line2d_62">
      <g>
       <use xlink:href="#mebea93985a" x="121.97681" y="569.325" style="stroke: #000000; stroke-width: 0.8"/>
      </g>
     </g>
     <g id="text_13">
      <!-- 0 -->
      <g transform="translate(118.79556 583.923437)scale(0.1 -0.1)">
       <use xlink:href="#DejaVuSans-30"/>
      </g>
     </g>
    </g>
    <g id="xtick_44">
     <g id="line2d_63">
      <path d="M 330.57782 569.325 
L 330.57782 361.575 
" clip-path="url(#pa528e0ef90)" style="fill: none; stroke: #b0b0b0; stroke-width: 0.8; stroke-linecap: square"/>
     </g>
     <g id="line2d_64">
      <g>
       <use xlink:href="#mebea93985a" x="330.57782" y="569.325" style="stroke: #000000; stroke-width: 0.8"/>
      </g>
     </g>
     <g id="text_14">
      <!-- 24 -->
      <g transform="translate(324.21532 583.923437)scale(0.1 -0.1)">
       <use xlink:href="#DejaVuSans-32"/>
       <use xlink:href="#DejaVuSans-34" x="63.623047"/>
      </g>
     </g>
    </g>
    <g id="xtick_45">
     <g id="line2d_65">
      <path d="M 539.17883 569.325 
L 539.17883 361.575 
" clip-path="url(#pa528e0ef90)" style="fill: none; stroke: #b0b0b0; stroke-width: 0.8; stroke-linecap: square"/>
     </g>
     <g id="line2d_66">
      <g>
       <use xlink:href="#mebea93985a" x="539.17883" y="569.325" style="stroke: #000000; stroke-width: 0.8"/>
      </g>
     </g>
     <g id="text_15">
      <!-- 48 -->
      <g transform="translate(532.81633 583.923437)scale(0.1 -0.1)">
       <use xlink:href="#DejaVuSans-34"/>
       <use xlink:href="#DejaVuSans-38" x="63.623047"/>
      </g>
     </g>
    </g>
    <g id="xtick_46">
     <g id="line2d_67">
      <path d="M 747.77984 569.325 
L 747.77984 361.575 
" clip-path="url(#pa528e0ef90)" style="fill: none; stroke: #b0b0b0; stroke-width: 0.8; stroke-linecap: square"/>
     </g>
     <g id="line2d_68">
      <g>
       <use xlink:href="#mebea93985a" x="747.77984" y="569.325" style="stroke: #000000; stroke-width: 0.8"/>
      </g>
     </g>
     <g id="text_16">
      <!-- 72 -->
      <g transform="translate(741.41734 583.923437)scale(0.1 -0.1)">
       <use xlink:href="#DejaVuSans-37"/>
       <use xlink:href="#DejaVuSans-32" x="63.623047"/>
      </g>
     </g>
    </g>
    <g id="xtick_47">
     <g id="line2d_69">
      <path d="M 956.38085 569.325 
L 956.38085 361.575 
" clip-path="url(#pa528e0ef90)" style="fill: none; stroke: #b0b0b0; stroke-width: 0.8; stroke-linecap: square"/>
     </g>
     <g id="line2d_70">
      <g>
       <use xlink:href="#mebea93985a" x="956.38085" y="569.325" style="stroke: #000000; stroke-width: 0.8"/>
      </g>
     </g>
     <g id="text_17">
      <!-- 96 -->
      <g transform="translate(950.01835 583.923437)scale(0.1 -0.1)">
       <use xlink:href="#DejaVuSans-39"/>
       <use xlink:href="#DejaVuSans-36" x="63.623047"/>
      </g>
     </g>
    </g>
    <g id="xtick_48">
     <g id="line2d_71">
      <g>
       <use xlink:href="#m657355b84b" x="139.360227" y="569.325" style="stroke: #000000; stroke-width: 0.6"/>
      </g>
     </g>
    </g>
    <g id="xtick_49">
     <g id="line2d_72">
      <g>
       <use xlink:href="#m657355b84b" x="165.435354" y="569.325" style="stroke: #000000; stroke-width: 0.6"/>
      </g>
     </g>
    </g>
    <g id="xtick_50">
     <g id="line2d_73">
      <g>
       <use xlink:href="#m657355b84b" x="191.51048" y="569.325" style="stroke: #000000; stroke-width: 0.6"/>
      </g>
     </g>
    </g>
    <g id="xtick_51">
     <g id="line2d_74">
      <g>
       <use xlink:href="#m657355b84b" x="217.585606" y="569.325" style="stroke: #000000; stroke-width: 0.6"/>
      </g>
     </g>
    </g>
    <g id="xtick_52">
     <g id="line2d_75">
      <g>
       <use xlink:href="#m657355b84b" x="243.660732" y="569.325" style="stroke: #000000; stroke-width: 0.6"/>
      </g>
     </g>
    </g>
    <g id="xtick_53">
     <g id="line2d_76">
      <g>
       <use xlink:href="#m657355b84b" x="269.735859" y="569.325" style="stroke: #000000; stroke-width: 0.6"/>
      </g>
     </g>
    </g>
    <g id="xtick_54">
     <g id="line2d_77">
      <g>
       <use xlink:href="#m657355b84b" x="295.810985" y="569.325" style="stroke: #000000; stroke-width: 0.6"/>
      </g>
     </g>
    </g>
    <g id="xtick_55">
     <g id="line2d_78">
      <g>
       <use xlink:href="#m657355b84b" x="321.886111" y="569.325" style="stroke: #000000; stroke-width: 0.6"/>
      </g>
     </g>
    </g>
    <g id="xtick_56">
     <g id="line2d_79">
      <g>
       <use xlink:href="#m657355b84b" x="347.961237" y="569.325" style="stroke: #000000; stroke-width: 0.6"/>
      </g>
     </g>
    </g>
    <g id="xtick_57">
     <g id="line2d_80">
      <g>
       <use xlink:href="#m657355b84b" x="374.036364" y="569.325" style="stroke: #000000; stroke-width: 0.6"/>
      </g>
     </g>
    </g>
    <g id="xtick_58">
     <g id="line2d_81">
      <g>
       <use xlink:href="#m657355b84b" x="400.11149" y="569.325" style="stroke: #000000; stroke-width: 0.6"/>
      </g>
     </g>
    </g>
    <g id="xtick_59">
     <g id="line2d_82">
      <g>
       <use xlink:href="#m657355b84b" x="426.186616" y="569.325" style="stroke: #000000; stroke-width: 0.6"/>
      </g>
     </g>
    </g>
    <g id="xtick_60">
     <g id="line2d_83">
      <g>
       <use xlink:href="#m657355b84b" x="452.261742" y="569.325" style="stroke: #000000; stroke-width: 0.6"/>
      </g>
     </g>
    </g>
    <g id="xtick_61">
     <g id="line2d_84">
      <g>
       <use xlink:href="#m657355b84b" x="478.336869" y="569.325" style="stroke: #000000; stroke-width: 0.6"/>
      </g>
     </g>
    </g>
    <g id="xtick_62">
     <g id="line2d_85">
      <g>
       <use xlink:href="#m657355b84b" x="504.411995" y="569.325" style="stroke: #000000; stroke-width: 0.6"/>
      </g>
     </g>
    </g>
    <g id="xtick_63">
     <g id="line2d_86">
      <g>
       <use xlink:href="#m657355b84b" x="530.487121" y="569.325" style="stroke: #000000; stroke-width: 0.6"/>
      </g>
     </g>
    </g>
    <g id="xtick_64">
     <g id="line2d_87">
      <g>
       <use xlink:href="#m657355b84b" x="556.562247" y="569.325" style="stroke: #000000; stroke-width: 0.6"/>
      </g>
     </g>
    </g>
    <g id="xtick_65">
     <g id="line2d_88">
      <g>
       <use xlink:href="#m657355b84b" x="582.637374" y="569.325" style="stroke: #000000; stroke-width: 0.6"/>
      </g>
     </g>
    </g>
    <g id="xtick_66">
     <g id="line2d_89">
      <g>
       <use xlink:href="#m657355b84b" x="608.7125" y="569.325" style="stroke: #000000; stroke-width: 0.6"/>
      </g>
     </g>
    </g>
    <g id="xtick_67">
     <g id="line2d_90">
      <g>
       <use xlink:href="#m657355b84b" x="634.787626" y="569.325" style="stroke: #000000; stroke-width: 0.6"/>
      </g>
     </g>
    </g>
    <g id="xtick_68">
     <g id="line2d_91">
      <g>
       <use xlink:href="#m657355b84b" x="660.862753" y="569.325" style="stroke: #000000; stroke-width: 0.6"/>
      </g>
     </g>
    </g>
    <g id="xtick_69">
     <g id="line2d_92">
      <g>
       <use xlink:href="#m657355b84b" x="686.937879" y="569.325" style="stroke: #000000; stroke-width: 0.6"/>
      </g>
     </g>
    </g>
    <g id="xtick_70">
     <g id="line2d_93">
      <g>
       <use xlink:href="#m657355b84b" x="713.013005" y="569.325" style="stroke: #000000; stroke-width: 0.6"/>
      </g>
     </g>
    </g>
    <g id="xtick_71">
     <g id="line2d_94">
      <g>
       <use xlink:href="#m657355b84b" x="739.088131" y="569.325" style="stroke: #000000; stroke-width: 0.6"/>
      </g>
     </g>
    </g>
    <g id="xtick_72">
     <g id="line2d_95">
      <g>
       <use xlink:href="#m657355b84b" x="765.163258" y="569.325" style="stroke: #000000; stroke-width: 0.6"/>
      </g>
     </g>
    </g>
    <g id="xtick_73">
     <g id="line2d_96">
      <g>
       <use xlink:href="#m657355b84b" x="791.238384" y="569.325" style="stroke: #000000; stroke-width: 0.6"/>
      </g>
     </g>
    </g>
    <g id="xtick_74">
     <g id="line2d_97">
      <g>
       <use xlink:href="#m657355b84b" x="817.31351" y="569.325" style="stroke: #000000; stroke-width: 0.6"/>
      </g>
     </g>
    </g>
    <g id="xtick_75">
     <g id="line2d_98">
      <g>
       <use xlink:href="#m657355b84b" x="843.388636" y="569.325" style="stroke: #000000; stroke-width: 0.6"/>
      </g>
     </g>
    </g>
    <g id="xtick_76">
     <g id="line2d_99">
      <g>
       <use xlink:href="#m657355b84b" x="869.463763" y="569.325" style="stroke: #000000; stroke-width: 0.6"/>
      </g>
     </g>
    </g>
    <g id="xtick_77">
     <g id="line2d_100">
      <g>
       <use xlink:href="#m657355b84b" x="895.538889" y="569.325" style="stroke: #000000; stroke-width: 0.6"/>
      </g>
     </g>
    </g>
    <g id="xtick_78">
     <g id="line2d_101">
      <g>
       <use xlink:href="#m657355b84b" x="921.614015" y="569.325" style="stroke: #000000; stroke-width: 0.6"/>
      </g>
     </g>
    </g>
    <g id="xtick_79">
     <g id="line2d_102">
      <g>
       <use xlink:href="#m657355b84b" x="947.689141" y="569.325" style="stroke: #000000; stroke-width: 0.6"/>
      </g>
     </g>
    </g>
    <g id="xtick_80">
     <g id="line2d_103">
      <g>
       <use xlink:href="#m657355b84b" x="973.764268" y="569.325" style="stroke: #000000; stroke-width: 0.6"/>
      </g>
     </g>
    </g>
    <g id="xtick_81">
     <g id="line2d_104">
      <g>
       <use xlink:href="#m657355b84b" x="999.839394" y="569.325" style="stroke: #000000; stroke-width: 0.6"/>
      </g>
     </g>
    </g>
    <g id="xtick_82">
     <g id="line2d_105">
      <g>
       <use xlink:href="#m657355b84b" x="1025.91452" y="569.325" style="stroke: #000000; stroke-width: 0.6"/>
      </g>
     </g>
    </g>
    <g id="xtick_83">
     <g id="line2d_106">
      <g>
       <use xlink:href="#m657355b84b" x="1051.989646" y="569.325" style="stroke: #000000; stroke-width: 0.6"/>
      </g>
     </g>
    </g>
    <g id="xtick_84">
     <g id="line2d_107">
      <g>
       <use xlink:href="#m657355b84b" x="1078.064773" y="569.325" style="stroke: #000000; stroke-width: 0.6"/>
      </g>
     </g>
    </g>
    <g id="text_18">
     <!-- Temps (en heures) -->
     <g transform="translate(562.419531 597.601562)scale(0.1 -0.1)">
      <use xlink:href="#DejaVuSans-54"/>
      <use xlink:href="#DejaVuSans-65" x="44.083984"/>
      <use xlink:href="#DejaVuSans-6d" x="105.607422"/>
      <use xlink:href="#DejaVuSans-70" x="203.019531"/>
      <use xlink:href="#DejaVuSans-73" x="266.496094"/>
      <use xlink:href="#DejaVuSans-20" x="318.595703"/>
      <use xlink:href="#DejaVuSans-28" x="350.382812"/>
      <use xlink:href="#DejaVuSans-65" x="389.396484"/>
      <use xlink:href="#DejaVuSans-6e" x="450.919922"/>
      <use xlink:href="#DejaVuSans-20" x="514.298828"/>
      <use xlink:href="#DejaVuSans-68" x="546.085938"/>
      <use xlink:href="#DejaVuSans-65" x="609.464844"/>
      <use xlink:href="#DejaVuSans-75" x="670.988281"/>
      <use xlink:href="#DejaVuSans-72" x="734.367188"/>
      <use xlink:href="#DejaVuSans-65" x="773.230469"/>
      <use xlink:href="#DejaVuSans-73" x="834.753906"/>
      <use xlink:href="#DejaVuSans-29" x="886.853516"/>
     </g>
    </g>
   </g>
   <g id="matplotlib.axis_4">
    <g id="ytick_6">
     <g id="line2d_108">
      <path d="M 92.425 532.344941 
L 1125 532.344941 
" clip-path="url(#pa528e0ef90)" style="fill: none; stroke: #b0b0b0; stroke-width: 0.8; stroke-linecap: square"/>
     </g>
     <g id="line2d_109">
      <g>
       <use xlink:href="#mc544359dfe" x="92.425" y="532.344941" style="stroke: #000000; stroke-width: 0.8"/>
      </g>
     </g>
     <g id="text_19">
      <!-- 20 -->
      <g transform="translate(72.7 536.14416)scale(0.1 -0.1)">
       <use xlink:href="#DejaVuSans-32"/>
       <use xlink:href="#DejaVuSans-30" x="63.623047"/>
      </g>
     </g>
    </g>
    <g id="ytick_7">
     <g id="line2d_110">
      <path d="M 92.425 493.006546 
L 1125 493.006546 
" clip-path="url(#pa528e0ef90)" style="fill: none; stroke: #b0b0b0; stroke-width: 0.8; stroke-linecap: square"/>
     </g>
     <g id="line2d_111">
      <g>
       <use xlink:href="#mc544359dfe" x="92.425" y="493.006546" style="stroke: #000000; stroke-width: 0.8"/>
      </g>
     </g>
     <g id="text_20">
      <!-- 40 -->
      <g transform="translate(72.7 496.805765)scale(0.1 -0.1)">
       <use xlink:href="#DejaVuSans-34"/>
       <use xlink:href="#DejaVuSans-30" x="63.623047"/>
      </g>
     </g>
    </g>
    <g id="ytick_8">
     <g id="line2d_112">
      <path d="M 92.425 453.668151 
L 1125 453.668151 
" clip-path="url(#pa528e0ef90)" style="fill: none; stroke: #b0b0b0; stroke-width: 0.8; stroke-linecap: square"/>
     </g>
     <g id="line2d_113">
      <g>
       <use xlink:href="#mc544359dfe" x="92.425" y="453.668151" style="stroke: #000000; stroke-width: 0.8"/>
      </g>
     </g>
     <g id="text_21">
      <!-- 60 -->
      <g transform="translate(72.7 457.467369)scale(0.1 -0.1)">
       <use xlink:href="#DejaVuSans-36"/>
       <use xlink:href="#DejaVuSans-30" x="63.623047"/>
      </g>
     </g>
    </g>
    <g id="ytick_9">
     <g id="line2d_114">
      <path d="M 92.425 414.329755 
L 1125 414.329755 
" clip-path="url(#pa528e0ef90)" style="fill: none; stroke: #b0b0b0; stroke-width: 0.8; stroke-linecap: square"/>
     </g>
     <g id="line2d_115">
      <g>
       <use xlink:href="#mc544359dfe" x="92.425" y="414.329755" style="stroke: #000000; stroke-width: 0.8"/>
      </g>
     </g>
     <g id="text_22">
      <!-- 80 -->
      <g transform="translate(72.7 418.128974)scale(0.1 -0.1)">
       <use xlink:href="#DejaVuSans-38"/>
       <use xlink:href="#DejaVuSans-30" x="63.623047"/>
      </g>
     </g>
    </g>
    <g id="ytick_10">
     <g id="line2d_116">
      <path d="M 92.425 374.99136 
L 1125 374.99136 
" clip-path="url(#pa528e0ef90)" style="fill: none; stroke: #b0b0b0; stroke-width: 0.8; stroke-linecap: square"/>
     </g>
     <g id="line2d_117">
      <g>
       <use xlink:href="#mc544359dfe" x="92.425" y="374.99136" style="stroke: #000000; stroke-width: 0.8"/>
      </g>
     </g>
     <g id="text_23">
      <!-- 100 -->
      <g transform="translate(66.3375 378.790579)scale(0.1 -0.1)">
       <use xlink:href="#DejaVuSans-31"/>
       <use xlink:href="#DejaVuSans-30" x="63.623047"/>
       <use xlink:href="#DejaVuSans-30" x="127.246094"/>
      </g>
     </g>
    </g>
   </g>
   <g id="line2d_118">
    <path d="M 139.360227 529.591254 
L 165.435354 538.442393 
L 191.51048 547.293532 
L 217.585606 548.276992 
L 243.660732 546.11338 
L 269.735859 540.606004 
L 295.810985 534.115169 
L 321.886111 534.901937 
L 347.961237 536.082089 
L 374.036364 540.21262 
L 400.11149 549.063759 
L 426.186616 551.620755 
L 452.261742 546.310072 
L 478.336869 542.17954 
L 504.411995 538.245701 
L 530.487121 532.148249 
L 556.562247 535.295321 
L 582.637374 542.966308 
L 608.7125 549.260451 
L 634.787626 550.637295 
L 660.862753 553.194291 
L 686.937879 546.900148 
L 713.013005 541.982848 
L 739.088131 536.475473 
L 765.163258 541.786156 
L 791.238384 548.473684 
L 817.31351 554.964519 
L 843.388636 559.881818 
L 869.463763 555.947979 
L 895.538889 545.916688 
L 921.614015 543.163 
L 947.689141 544.933228 
L 973.764268 534.508553 
L 999.839394 547.09684 
L 1025.91452 549.063759 
L 1051.989646 543.949768 
L 1078.064773 549.260451 
" clip-path="url(#pa528e0ef90)" style="fill: none; stroke: #1f77b4; stroke-width: 1.5; stroke-linecap: square"/>
   </g>
   <g id="line2d_119">
    <path d="M 139.360227 467.633281 
L 165.435354 437.342716 
L 191.51048 391.90687 
L 217.585606 395.644017 
L 243.660732 401.544777 
L 269.735859 420.623898 
L 295.810985 449.931003 
L 321.886111 457.60199 
L 347.961237 456.225146 
L 374.036364 435.572489 
L 400.11149 411.379376 
L 426.186616 417.280135 
L 452.261742 433.408877 
L 478.336869 457.011914 
L 504.411995 483.958715 
L 530.487121 496.743694 
L 556.562247 478.254648 
L 582.637374 454.848302 
L 608.7125 420.82059 
L 634.787626 424.951122 
L 660.862753 437.342716 
L 686.937879 446.980623 
L 713.013005 476.681112 
L 739.088131 479.631492 
L 765.163258 463.896133 
L 791.238384 405.872 
L 817.31351 379.515275 
L 843.388636 375.581436 
L 869.463763 380.302043 
L 895.538889 384.825959 
L 921.614015 399.577857 
L 947.689141 385.022651 
L 973.764268 429.278345 
L 999.839394 397.610937 
L 1025.91452 384.235883 
L 1051.989646 390.136642 
L 1078.064773 384.432575 
" clip-path="url(#pa528e0ef90)" style="fill: none; stroke: #ff7f0e; stroke-width: 1.5; stroke-linecap: square"/>
   </g>
   <g id="line2d_120">
    <path d="M 139.360227 372.099988 
L 165.435354 371.824619 
L 191.51048 371.116528 
L 217.585606 371.155866 
L 243.660732 371.981973 
L 269.735859 371.018182 
L 295.810985 371.077189 
L 321.886111 372.808079 
L 347.961237 371.450904 
L 374.036364 371.608258 
L 400.11149 372.513041 
L 426.186616 373.378486 
L 452.261742 372.985102 
L 478.336869 373.811208 
L 504.411995 372.985102 
L 530.487121 373.162124 
L 556.562247 372.257341 
L 582.637374 372.375356 
L 608.7125 373.594847 
L 634.787626 372.572048 
L 660.862753 373.594847 
L 686.937879 372.375356 
L 713.013005 374.440622 
L 739.088131 373.26047 
L 765.163258 374.027569 
L 791.238384 374.224261 
L 817.31351 373.712862 
L 843.388636 374.656983 
L 869.463763 373.299809 
L 895.538889 374.086577 
L 921.614015 373.555508 
L 947.689141 375.148713 
L 973.764268 373.417824 
L 999.839394 375.306067 
L 1025.91452 373.850546 
L 1051.989646 375.188052 
L 1078.064773 374.204592 
" clip-path="url(#pa528e0ef90)" style="fill: none; stroke: #2ca02c; stroke-width: 1.5; stroke-linecap: square"/>
   </g>
   <g id="patch_8">
    <path d="M 92.425 569.325 
L 92.425 361.575 
" style="fill: none; stroke: #000000; stroke-width: 0.8; stroke-linejoin: miter; stroke-linecap: square"/>
   </g>
   <g id="patch_9">
    <path d="M 1125 569.325 
L 1125 361.575 
" style="fill: none; stroke: #000000; stroke-width: 0.8; stroke-linejoin: miter; stroke-linecap: square"/>
   </g>
   <g id="patch_10">
    <path d="M 92.425 569.325 
L 1125 569.325 
" style="fill: none; stroke: #000000; stroke-width: 0.8; stroke-linejoin: miter; stroke-linecap: square"/>
   </g>
   <g id="patch_11">
    <path d="M 92.425 361.575 
L 1125 361.575 
" style="fill: none; stroke: #000000; stroke-width: 0.8; stroke-linejoin: miter; stroke-linecap: square"/>
   </g>
   <g id="text_24">
    <!-- Données de notre Station Maison -->
    <g transform="translate(508.878125 355.575)scale(0.12 -0.12)">
     <defs>
      <path id="DejaVuSans-53" d="M 3425 4513 
L 3425 3897 
Q 3066 4069 2747 4153 
Q 2428 4238 2131 4238 
Q 1616 4238 1336 4038 
Q 1056 3838 1056 3469 
Q 1056 3159 1242 3001 
Q 1428 2844 1947 2747 
L 2328 2669 
Q 3034 2534 3370 2195 
Q 3706 1856 3706 1288 
Q 3706 609 3251 259 
Q 2797 -91 1919 -91 
Q 1588 -91 1214 -16 
Q 841 59 441 206 
L 441 856 
Q 825 641 1194 531 
Q 1563 422 1919 422 
Q 2459 422 2753 634 
Q 3047 847 3047 1241 
Q 3047 1584 2836 1778 
Q 2625 1972 2144 2069 
L 1759 2144 
Q 1053 2284 737 2584 
Q 422 2884 422 3419 
Q 422 4038 858 4394 
Q 1294 4750 2059 4750 
Q 2388 4750 2728 4690 
Q 3069 4631 3425 4513 
z
" transform="scale(0.015625)"/>
      <path id="DejaVuSans-69" d="M 603 3500 
L 1178 3500 
L 1178 0 
L 603 0 
L 603 3500 
z
M 603 4863 
L 1178 4863 
L 1178 4134 
L 603 4134 
L 603 4863 
z
" transform="scale(0.015625)"/>
     </defs>
     <use xlink:href="#DejaVuSans-44"/>
     <use xlink:href="#DejaVuSans-6f" x="77.001953"/>
     <use xlink:href="#DejaVuSans-6e" x="138.183594"/>
     <use xlink:href="#DejaVuSans-6e" x="201.5625"/>
     <use xlink:href="#DejaVuSans-e9" x="264.941406"/>
     <use xlink:href="#DejaVuSans-65" x="326.464844"/>
     <use xlink:href="#DejaVuSans-73" x="387.988281"/>
     <use xlink:href="#DejaVuSans-20" x="440.087891"/>
     <use xlink:href="#DejaVuSans-64" x="471.875"/>
     <use xlink:href="#DejaVuSans-65" x="535.351562"/>
     <use xlink:href="#DejaVuSans-20" x="596.875"/>
     <use xlink:href="#DejaVuSans-6e" x="628.662109"/>
     <use xlink:href="#DejaVuSans-6f" x="692.041016"/>
     <use xlink:href="#DejaVuSans-74" x="753.222656"/>
     <use xlink:href="#DejaVuSans-72" x="792.431641"/>
     <use xlink:href="#DejaVuSans-65" x="831.294922"/>
     <use xlink:href="#DejaVuSans-20" x="892.818359"/>
     <use xlink:href="#DejaVuSans-53" x="924.605469"/>
     <use xlink:href="#DejaVuSans-74" x="988.082031"/>
     <use xlink:href="#DejaVuSans-61" x="1027.291016"/>
     <use xlink:href="#DejaVuSans-74" x="1088.570312"/>
     <use xlink:href="#DejaVuSans-69" x="1127.779297"/>
     <use xlink:href="#DejaVuSans-6f" x="1155.5625"/>
     <use xlink:href="#DejaVuSans-6e" x="1216.744141"/>
     <use xlink:href="#DejaVuSans-20" x="1280.123047"/>
     <use xlink:href="#DejaVuSans-4d" x="1311.910156"/>
     <use xlink:href="#DejaVuSans-61" x="1398.189453"/>
     <use xlink:href="#DejaVuSans-69" x="1459.46875"/>
     <use xlink:href="#DejaVuSans-73" x="1487.251953"/>
     <use xlink:href="#DejaVuSans-6f" x="1539.351562"/>
     <use xlink:href="#DejaVuSans-6e" x="1600.533203"/>
    </g>
   </g>
  </g>
  <g id="text_25">
   <!-- Données météorologiques de Le Blanc, du 25 au 29 avril 2022 -->
   <g transform="translate(305.95545 26.7813)scale(0.1728 -0.1728)">
    <defs>
     <path id="DejaVuSans-6c" d="M 603 4863 
L 1178 4863 
L 1178 0 
L 603 0 
L 603 4863 
z
" transform="scale(0.015625)"/>
     <path id="DejaVuSans-67" d="M 2906 1791 
Q 2906 2416 2648 2759 
Q 2391 3103 1925 3103 
Q 1463 3103 1205 2759 
Q 947 2416 947 1791 
Q 947 1169 1205 825 
Q 1463 481 1925 481 
Q 2391 481 2648 825 
Q 2906 1169 2906 1791 
z
M 3481 434 
Q 3481 -459 3084 -895 
Q 2688 -1331 1869 -1331 
Q 1566 -1331 1297 -1286 
Q 1028 -1241 775 -1147 
L 775 -588 
Q 1028 -725 1275 -790 
Q 1522 -856 1778 -856 
Q 2344 -856 2625 -561 
Q 2906 -266 2906 331 
L 2906 616 
Q 2728 306 2450 153 
Q 2172 0 1784 0 
Q 1141 0 747 490 
Q 353 981 353 1791 
Q 353 2603 747 3093 
Q 1141 3584 1784 3584 
Q 2172 3584 2450 3431 
Q 2728 3278 2906 2969 
L 2906 3500 
L 3481 3500 
L 3481 434 
z
" transform="scale(0.015625)"/>
     <path id="DejaVuSans-71" d="M 947 1747 
Q 947 1113 1208 752 
Q 1469 391 1925 391 
Q 2381 391 2643 752 
Q 2906 1113 2906 1747 
Q 2906 2381 2643 2742 
Q 2381 3103 1925 3103 
Q 1469 3103 1208 2742 
Q 947 2381 947 1747 
z
M 2906 525 
Q 2725 213 2448 61 
Q 2172 -91 1784 -91 
Q 1150 -91 751 415 
Q 353 922 353 1747 
Q 353 2572 751 3078 
Q 1150 3584 1784 3584 
Q 2172 3584 2448 3432 
Q 2725 3281 2906 2969 
L 2906 3500 
L 3481 3500 
L 3481 -1331 
L 2906 -1331 
L 2906 525 
z
" transform="scale(0.015625)"/>
     <path id="DejaVuSans-4c" d="M 628 4666 
L 1259 4666 
L 1259 531 
L 3531 531 
L 3531 0 
L 628 0 
L 628 4666 
z
" transform="scale(0.015625)"/>
     <path id="DejaVuSans-42" d="M 1259 2228 
L 1259 519 
L 2272 519 
Q 2781 519 3026 730 
Q 3272 941 3272 1375 
Q 3272 1813 3026 2020 
Q 2781 2228 2272 2228 
L 1259 2228 
z
M 1259 4147 
L 1259 2741 
L 2194 2741 
Q 2656 2741 2882 2914 
Q 3109 3088 3109 3444 
Q 3109 3797 2882 3972 
Q 2656 4147 2194 4147 
L 1259 4147 
z
M 628 4666 
L 2241 4666 
Q 2963 4666 3353 4366 
Q 3744 4066 3744 3513 
Q 3744 3084 3544 2831 
Q 3344 2578 2956 2516 
Q 3422 2416 3680 2098 
Q 3938 1781 3938 1306 
Q 3938 681 3513 340 
Q 3088 0 2303 0 
L 628 0 
L 628 4666 
z
" transform="scale(0.015625)"/>
     <path id="DejaVuSans-2c" d="M 750 794 
L 1409 794 
L 1409 256 
L 897 -744 
L 494 -744 
L 750 256 
L 750 794 
z
" transform="scale(0.015625)"/>
     <path id="DejaVuSans-35" d="M 691 4666 
L 3169 4666 
L 3169 4134 
L 1269 4134 
L 1269 2991 
Q 1406 3038 1543 3061 
Q 1681 3084 1819 3084 
Q 2600 3084 3056 2656 
Q 3513 2228 3513 1497 
Q 3513 744 3044 326 
Q 2575 -91 1722 -91 
Q 1428 -91 1123 -41 
Q 819 9 494 109 
L 494 744 
Q 775 591 1075 516 
Q 1375 441 1709 441 
Q 2250 441 2565 725 
Q 2881 1009 2881 1497 
Q 2881 1984 2565 2268 
Q 2250 2553 1709 2553 
Q 1456 2553 1204 2497 
Q 953 2441 691 2322 
L 691 4666 
z
" transform="scale(0.015625)"/>
     <path id="DejaVuSans-76" d="M 191 3500 
L 800 3500 
L 1894 563 
L 2988 3500 
L 3597 3500 
L 2284 0 
L 1503 0 
L 191 3500 
z
" transform="scale(0.015625)"/>
    </defs>
    <use xlink:href="#DejaVuSans-44"/>
    <use xlink:href="#DejaVuSans-6f" x="77.001953"/>
    <use xlink:href="#DejaVuSans-6e" x="138.183594"/>
    <use xlink:href="#DejaVuSans-6e" x="201.5625"/>
    <use xlink:href="#DejaVuSans-e9" x="264.941406"/>
    <use xlink:href="#DejaVuSans-65" x="326.464844"/>
    <use xlink:href="#DejaVuSans-73" x="387.988281"/>
    <use xlink:href="#DejaVuSans-20" x="440.087891"/>
    <use xlink:href="#DejaVuSans-6d" x="471.875"/>
    <use xlink:href="#DejaVuSans-e9" x="569.287109"/>
    <use xlink:href="#DejaVuSans-74" x="630.810547"/>
    <use xlink:href="#DejaVuSans-e9" x="670.019531"/>
    <use xlink:href="#DejaVuSans-6f" x="731.542969"/>
    <use xlink:href="#DejaVuSans-72" x="792.724609"/>
    <use xlink:href="#DejaVuSans-6f" x="831.587891"/>
    <use xlink:href="#DejaVuSans-6c" x="892.769531"/>
    <use xlink:href="#DejaVuSans-6f" x="920.552734"/>
    <use xlink:href="#DejaVuSans-67" x="981.734375"/>
    <use xlink:href="#DejaVuSans-69" x="1045.210938"/>
    <use xlink:href="#DejaVuSans-71" x="1072.994141"/>
    <use xlink:href="#DejaVuSans-75" x="1136.470703"/>
    <use xlink:href="#DejaVuSans-65" x="1199.849609"/>
    <use xlink:href="#DejaVuSans-73" x="1261.373047"/>
    <use xlink:href="#DejaVuSans-20" x="1313.472656"/>
    <use xlink:href="#DejaVuSans-64" x="1345.259766"/>
    <use xlink:href="#DejaVuSans-65" x="1408.736328"/>
    <use xlink:href="#DejaVuSans-20" x="1470.259766"/>
    <use xlink:href="#DejaVuSans-4c" x="1502.046875"/>
    <use xlink:href="#DejaVuSans-65" x="1556.009766"/>
    <use xlink:href="#DejaVuSans-20" x="1617.533203"/>
    <use xlink:href="#DejaVuSans-42" x="1649.320312"/>
    <use xlink:href="#DejaVuSans-6c" x="1717.923828"/>
    <use xlink:href="#DejaVuSans-61" x="1745.707031"/>
    <use xlink:href="#DejaVuSans-6e" x="1806.986328"/>
    <use xlink:href="#DejaVuSans-63" x="1870.365234"/>
    <use xlink:href="#DejaVuSans-2c" x="1925.345703"/>
    <use xlink:href="#DejaVuSans-20" x="1957.132812"/>
    <use xlink:href="#DejaVuSans-64" x="1988.919922"/>
    <use xlink:href="#DejaVuSans-75" x="2052.396484"/>
    <use xlink:href="#DejaVuSans-20" x="2115.775391"/>
    <use xlink:href="#DejaVuSans-32" x="2147.5625"/>
    <use xlink:href="#DejaVuSans-35" x="2211.185547"/>
    <use xlink:href="#DejaVuSans-20" x="2274.808594"/>
    <use xlink:href="#DejaVuSans-61" x="2306.595703"/>
    <use xlink:href="#DejaVuSans-75" x="2367.875"/>
    <use xlink:href="#DejaVuSans-20" x="2431.253906"/>
    <use xlink:href="#DejaVuSans-32" x="2463.041016"/>
    <use xlink:href="#DejaVuSans-39" x="2526.664062"/>
    <use xlink:href="#DejaVuSans-20" x="2590.287109"/>
    <use xlink:href="#DejaVuSans-61" x="2622.074219"/>
    <use xlink:href="#DejaVuSans-76" x="2683.353516"/>
    <use xlink:href="#DejaVuSans-72" x="2742.533203"/>
    <use xlink:href="#DejaVuSans-69" x="2783.646484"/>
    <use xlink:href="#DejaVuSans-6c" x="2811.429688"/>
    <use xlink:href="#DejaVuSans-20" x="2839.212891"/>
    <use xlink:href="#DejaVuSans-32" x="2871"/>
    <use xlink:href="#DejaVuSans-30" x="2934.623047"/>
    <use xlink:href="#DejaVuSans-32" x="2998.246094"/>
    <use xlink:href="#DejaVuSans-32" x="3061.869141"/>
   </g>
  </g>
  <g id="legend_1">
   <g id="patch_12">
    <path d="M 1011.028125 52.434375 
L 1145 52.434375 
Q 1147 52.434375 1147 50.434375 
L 1147 7 
Q 1147 5 1145 5 
L 1011.028125 5 
Q 1009.028125 5 1009.028125 7 
L 1009.028125 50.434375 
Q 1009.028125 52.434375 1011.028125 52.434375 
z
" style="fill: #ffffff; opacity: 0.8; stroke: #cccccc; stroke-linejoin: miter"/>
   </g>
   <g id="line2d_121">
    <path d="M 1013.028125 13.498438 
L 1023.028125 13.498438 
L 1033.028125 13.498438 
" style="fill: none; stroke: #1f77b4; stroke-width: 1.5; stroke-linecap: square"/>
   </g>
   <g id="text_26">
    <!-- Température (en °C) -->
    <g transform="translate(1041.028125 16.998438)scale(0.1 -0.1)">
     <defs>
      <path id="DejaVuSans-b0" d="M 1600 4347 
Q 1350 4347 1178 4173 
Q 1006 4000 1006 3750 
Q 1006 3503 1178 3333 
Q 1350 3163 1600 3163 
Q 1850 3163 2022 3333 
Q 2194 3503 2194 3750 
Q 2194 3997 2020 4172 
Q 1847 4347 1600 4347 
z
M 1600 4750 
Q 1800 4750 1984 4673 
Q 2169 4597 2303 4453 
Q 2447 4313 2519 4134 
Q 2591 3956 2591 3750 
Q 2591 3338 2302 3052 
Q 2013 2766 1594 2766 
Q 1172 2766 890 3047 
Q 609 3328 609 3750 
Q 609 4169 896 4459 
Q 1184 4750 1600 4750 
z
" transform="scale(0.015625)"/>
      <path id="DejaVuSans-43" d="M 4122 4306 
L 4122 3641 
Q 3803 3938 3442 4084 
Q 3081 4231 2675 4231 
Q 1875 4231 1450 3742 
Q 1025 3253 1025 2328 
Q 1025 1406 1450 917 
Q 1875 428 2675 428 
Q 3081 428 3442 575 
Q 3803 722 4122 1019 
L 4122 359 
Q 3791 134 3420 21 
Q 3050 -91 2638 -91 
Q 1578 -91 968 557 
Q 359 1206 359 2328 
Q 359 3453 968 4101 
Q 1578 4750 2638 4750 
Q 3056 4750 3426 4639 
Q 3797 4528 4122 4306 
z
" transform="scale(0.015625)"/>
     </defs>
     <use xlink:href="#DejaVuSans-54"/>
     <use xlink:href="#DejaVuSans-65" x="44.083984"/>
     <use xlink:href="#DejaVuSans-6d" x="105.607422"/>
     <use xlink:href="#DejaVuSans-70" x="203.019531"/>
     <use xlink:href="#DejaVuSans-e9" x="266.496094"/>
     <use xlink:href="#DejaVuSans-72" x="328.019531"/>
     <use xlink:href="#DejaVuSans-61" x="369.132812"/>
     <use xlink:href="#DejaVuSans-74" x="430.412109"/>
     <use xlink:href="#DejaVuSans-75" x="469.621094"/>
     <use xlink:href="#DejaVuSans-72" x="533"/>
     <use xlink:href="#DejaVuSans-65" x="571.863281"/>
     <use xlink:href="#DejaVuSans-20" x="633.386719"/>
     <use xlink:href="#DejaVuSans-28" x="665.173828"/>
     <use xlink:href="#DejaVuSans-65" x="704.1875"/>
     <use xlink:href="#DejaVuSans-6e" x="765.710938"/>
     <use xlink:href="#DejaVuSans-20" x="829.089844"/>
     <use xlink:href="#DejaVuSans-b0" x="860.876953"/>
     <use xlink:href="#DejaVuSans-43" x="910.876953"/>
     <use xlink:href="#DejaVuSans-29" x="980.701172"/>
    </g>
   </g>
   <g id="line2d_122">
    <path d="M 1013.028125 28.176563 
L 1023.028125 28.176563 
L 1033.028125 28.176563 
" style="fill: none; stroke: #ff7f0e; stroke-width: 1.5; stroke-linecap: square"/>
   </g>
   <g id="text_27">
    <!-- Humidité (en %) -->
    <g transform="translate(1041.028125 31.676563)scale(0.1 -0.1)">
     <defs>
      <path id="DejaVuSans-48" d="M 628 4666 
L 1259 4666 
L 1259 2753 
L 3553 2753 
L 3553 4666 
L 4184 4666 
L 4184 0 
L 3553 0 
L 3553 2222 
L 1259 2222 
L 1259 0 
L 628 0 
L 628 4666 
z
" transform="scale(0.015625)"/>
      <path id="DejaVuSans-25" d="M 4653 2053 
Q 4381 2053 4226 1822 
Q 4072 1591 4072 1178 
Q 4072 772 4226 539 
Q 4381 306 4653 306 
Q 4919 306 5073 539 
Q 5228 772 5228 1178 
Q 5228 1588 5073 1820 
Q 4919 2053 4653 2053 
z
M 4653 2450 
Q 5147 2450 5437 2106 
Q 5728 1763 5728 1178 
Q 5728 594 5436 251 
Q 5144 -91 4653 -91 
Q 4153 -91 3862 251 
Q 3572 594 3572 1178 
Q 3572 1766 3864 2108 
Q 4156 2450 4653 2450 
z
M 1428 4353 
Q 1159 4353 1004 4120 
Q 850 3888 850 3481 
Q 850 3069 1003 2837 
Q 1156 2606 1428 2606 
Q 1700 2606 1854 2837 
Q 2009 3069 2009 3481 
Q 2009 3884 1853 4118 
Q 1697 4353 1428 4353 
z
M 4250 4750 
L 4750 4750 
L 1831 -91 
L 1331 -91 
L 4250 4750 
z
M 1428 4750 
Q 1922 4750 2215 4408 
Q 2509 4066 2509 3481 
Q 2509 2891 2217 2550 
Q 1925 2209 1428 2209 
Q 931 2209 642 2551 
Q 353 2894 353 3481 
Q 353 4063 643 4406 
Q 934 4750 1428 4750 
z
" transform="scale(0.015625)"/>
     </defs>
     <use xlink:href="#DejaVuSans-48"/>
     <use xlink:href="#DejaVuSans-75" x="75.195312"/>
     <use xlink:href="#DejaVuSans-6d" x="138.574219"/>
     <use xlink:href="#DejaVuSans-69" x="235.986328"/>
     <use xlink:href="#DejaVuSans-64" x="263.769531"/>
     <use xlink:href="#DejaVuSans-69" x="327.246094"/>
     <use xlink:href="#DejaVuSans-74" x="355.029297"/>
     <use xlink:href="#DejaVuSans-e9" x="394.238281"/>
     <use xlink:href="#DejaVuSans-20" x="455.761719"/>
     <use xlink:href="#DejaVuSans-28" x="487.548828"/>
     <use xlink:href="#DejaVuSans-65" x="526.5625"/>
     <use xlink:href="#DejaVuSans-6e" x="588.085938"/>
     <use xlink:href="#DejaVuSans-20" x="651.464844"/>
     <use xlink:href="#DejaVuSans-25" x="683.251953"/>
     <use xlink:href="#DejaVuSans-29" x="778.271484"/>
    </g>
   </g>
   <g id="line2d_123">
    <path d="M 1013.028125 42.854688 
L 1023.028125 42.854688 
L 1033.028125 42.854688 
" style="fill: none; stroke: #2ca02c; stroke-width: 1.5; stroke-linecap: square"/>
   </g>
   <g id="text_28">
    <!-- Pression (en Pa) -->
    <g transform="translate(1041.028125 46.354688)scale(0.1 -0.1)">
     <defs>
      <path id="DejaVuSans-50" d="M 1259 4147 
L 1259 2394 
L 2053 2394 
Q 2494 2394 2734 2622 
Q 2975 2850 2975 3272 
Q 2975 3691 2734 3919 
Q 2494 4147 2053 4147 
L 1259 4147 
z
M 628 4666 
L 2053 4666 
Q 2838 4666 3239 4311 
Q 3641 3956 3641 3272 
Q 3641 2581 3239 2228 
Q 2838 1875 2053 1875 
L 1259 1875 
L 1259 0 
L 628 0 
L 628 4666 
z
" transform="scale(0.015625)"/>
     </defs>
     <use xlink:href="#DejaVuSans-50"/>
     <use xlink:href="#DejaVuSans-72" x="58.552734"/>
     <use xlink:href="#DejaVuSans-65" x="97.416016"/>
     <use xlink:href="#DejaVuSans-73" x="158.939453"/>
     <use xlink:href="#DejaVuSans-73" x="211.039062"/>
     <use xlink:href="#DejaVuSans-69" x="263.138672"/>
     <use xlink:href="#DejaVuSans-6f" x="290.921875"/>
     <use xlink:href="#DejaVuSans-6e" x="352.103516"/>
     <use xlink:href="#DejaVuSans-20" x="415.482422"/>
     <use xlink:href="#DejaVuSans-28" x="447.269531"/>
     <use xlink:href="#DejaVuSans-65" x="486.283203"/>
     <use xlink:href="#DejaVuSans-6e" x="547.806641"/>
     <use xlink:href="#DejaVuSans-20" x="611.185547"/>
     <use xlink:href="#DejaVuSans-50" x="642.972656"/>
     <use xlink:href="#DejaVuSans-61" x="698.775391"/>
     <use xlink:href="#DejaVuSans-29" x="760.054688"/>
    </g>
   </g>
  </g>
 </g>
 <defs>
  <clipPath id="p82e3a1d3bc">
   <rect x="92.425" y="47.7" width="1032.575" height="207.75"/>
  </clipPath>
  <clipPath id="pa528e0ef90">
   <rect x="92.425" y="361.575" width="1032.575" height="207.75"/>
  </clipPath>
 </defs>
</svg>
