<?xml version="1.0" encoding="utf-8" standalone="no"?>
<!DOCTYPE svg PUBLIC "-//W3C//DTD SVG 1.1//EN"
  "http://www.w3.org/Graphics/SVG/1.1/DTD/svg11.dtd">
<svg xmlns:xlink="http://www.w3.org/1999/xlink" width="1152pt" height="648pt" viewBox="0 0 1152 648" xmlns="http://www.w3.org/2000/svg" version="1.1">
 <metadata>
  <rdf:RDF xmlns:dc="http://purl.org/dc/elements/1.1/" xmlns:cc="http://creativecommons.org/ns#" xmlns:rdf="http://www.w3.org/1999/02/22-rdf-syntax-ns#">
   <cc:Work>
    <dc:type rdf:resource="http://purl.org/dc/dcmitype/StillImage"/>
    <dc:date>2022-05-20T00:04:06.063299</dc:date>
    <dc:format>image/svg+xml</dc:format>
    <dc:creator>
     <cc:Agent>
      <dc:title>Matplotlib v3.5.2, https://matplotlib.org/</dc:title>
     </cc:Agent>
    </dc:creator>
   </cc:Work>
  </rdf:RDF>
 </metadata>
 <defs>
  <style type="text/css">*{stroke-linejoin: round; stroke-linecap: butt}</style>
 </defs>
 <g id="figure_1">
  <g id="patch_1">
   <path d="M 0 648 
L 1152 648 
L 1152 0 
L 0 0 
z
" style="fill: #ffffff"/>
  </g>
  <g id="axes_1">
   <g id="patch_2">
    <path d="M 92.425 255.45 
L 1125 255.45 
L 1125 47.7 
L 92.425 47.7 
z
" style="fill: #ffffff"/>
   </g>
   <g id="matplotlib.axis_1">
    <g id="xtick_1">
     <g id="line2d_1">
      <path d="M 126.045269 255.45 
L 126.045269 47.7 
" clip-path="url(#p049aa89964)" style="fill: none; stroke: #b0b0b0; stroke-width: 0.8; stroke-linecap: square"/>
     </g>
     <g id="line2d_2">
      <defs>
       <path id="m2d9783538d" d="M 0 0 
L 0 3.5 
" style="stroke: #000000; stroke-width: 0.8"/>
      </defs>
      <g>
       <use xlink:href="#m2d9783538d" x="126.045269" y="255.45" style="stroke: #000000; stroke-width: 0.8"/>
      </g>
     </g>
     <g id="text_1">
      <!-- 0 -->
      <g transform="translate(122.864019 270.048437)scale(0.1 -0.1)">
       <defs>
        <path id="DejaVuSans-30" d="M 2034 4250 
Q 1547 4250 1301 3770 
Q 1056 3291 1056 2328 
Q 1056 1369 1301 889 
Q 1547 409 2034 409 
Q 2525 409 2770 889 
Q 3016 1369 3016 2328 
Q 3016 3291 2770 3770 
Q 2525 4250 2034 4250 
z
M 2034 4750 
Q 2819 4750 3233 4129 
Q 3647 3509 3647 2328 
Q 3647 1150 3233 529 
Q 2819 -91 2034 -91 
Q 1250 -91 836 529 
Q 422 1150 422 2328 
Q 422 3509 836 4129 
Q 1250 4750 2034 4750 
z
" transform="scale(0.015625)"/>
       </defs>
       <use xlink:href="#DejaVuSans-30"/>
      </g>
     </g>
    </g>
    <g id="xtick_2">
     <g id="line2d_3">
      <path d="M 285.824766 255.45 
L 285.824766 47.7 
" clip-path="url(#p049aa89964)" style="fill: none; stroke: #b0b0b0; stroke-width: 0.8; stroke-linecap: square"/>
     </g>
     <g id="line2d_4">
      <g>
       <use xlink:href="#m2d9783538d" x="285.824766" y="255.45" style="stroke: #000000; stroke-width: 0.8"/>
      </g>
     </g>
     <g id="text_2">
      <!-- 24 -->
      <g transform="translate(279.462266 270.048437)scale(0.1 -0.1)">
       <defs>
        <path id="DejaVuSans-32" d="M 1228 531 
L 3431 531 
L 3431 0 
L 469 0 
L 469 531 
Q 828 903 1448 1529 
Q 2069 2156 2228 2338 
Q 2531 2678 2651 2914 
Q 2772 3150 2772 3378 
Q 2772 3750 2511 3984 
Q 2250 4219 1831 4219 
Q 1534 4219 1204 4116 
Q 875 4013 500 3803 
L 500 4441 
Q 881 4594 1212 4672 
Q 1544 4750 1819 4750 
Q 2544 4750 2975 4387 
Q 3406 4025 3406 3419 
Q 3406 3131 3298 2873 
Q 3191 2616 2906 2266 
Q 2828 2175 2409 1742 
Q 1991 1309 1228 531 
z
" transform="scale(0.015625)"/>
        <path id="DejaVuSans-34" d="M 2419 4116 
L 825 1625 
L 2419 1625 
L 2419 4116 
z
M 2253 4666 
L 3047 4666 
L 3047 1625 
L 3713 1625 
L 3713 1100 
L 3047 1100 
L 3047 0 
L 2419 0 
L 2419 1100 
L 313 1100 
L 313 1709 
L 2253 4666 
z
" transform="scale(0.015625)"/>
       </defs>
       <use xlink:href="#DejaVuSans-32"/>
       <use xlink:href="#DejaVuSans-34" x="63.623047"/>
      </g>
     </g>
    </g>
    <g id="xtick_3">
     <g id="line2d_5">
      <path d="M 445.604263 255.45 
L 445.604263 47.7 
" clip-path="url(#p049aa89964)" style="fill: none; stroke: #b0b0b0; stroke-width: 0.8; stroke-linecap: square"/>
     </g>
     <g id="line2d_6">
      <g>
       <use xlink:href="#m2d9783538d" x="445.604263" y="255.45" style="stroke: #000000; stroke-width: 0.8"/>
      </g>
     </g>
     <g id="text_3">
      <!-- 48 -->
      <g transform="translate(439.241763 270.048437)scale(0.1 -0.1)">
       <defs>
        <path id="DejaVuSans-38" d="M 2034 2216 
Q 1584 2216 1326 1975 
Q 1069 1734 1069 1313 
Q 1069 891 1326 650 
Q 1584 409 2034 409 
Q 2484 409 2743 651 
Q 3003 894 3003 1313 
Q 3003 1734 2745 1975 
Q 2488 2216 2034 2216 
z
M 1403 2484 
Q 997 2584 770 2862 
Q 544 3141 544 3541 
Q 544 4100 942 4425 
Q 1341 4750 2034 4750 
Q 2731 4750 3128 4425 
Q 3525 4100 3525 3541 
Q 3525 3141 3298 2862 
Q 3072 2584 2669 2484 
Q 3125 2378 3379 2068 
Q 3634 1759 3634 1313 
Q 3634 634 3220 271 
Q 2806 -91 2034 -91 
Q 1263 -91 848 271 
Q 434 634 434 1313 
Q 434 1759 690 2068 
Q 947 2378 1403 2484 
z
M 1172 3481 
Q 1172 3119 1398 2916 
Q 1625 2713 2034 2713 
Q 2441 2713 2670 2916 
Q 2900 3119 2900 3481 
Q 2900 3844 2670 4047 
Q 2441 4250 2034 4250 
Q 1625 4250 1398 4047 
Q 1172 3844 1172 3481 
z
" transform="scale(0.015625)"/>
       </defs>
       <use xlink:href="#DejaVuSans-34"/>
       <use xlink:href="#DejaVuSans-38" x="63.623047"/>
      </g>
     </g>
    </g>
    <g id="xtick_4">
     <g id="line2d_7">
      <path d="M 605.38376 255.45 
L 605.38376 47.7 
" clip-path="url(#p049aa89964)" style="fill: none; stroke: #b0b0b0; stroke-width: 0.8; stroke-linecap: square"/>
     </g>
     <g id="line2d_8">
      <g>
       <use xlink:href="#m2d9783538d" x="605.38376" y="255.45" style="stroke: #000000; stroke-width: 0.8"/>
      </g>
     </g>
     <g id="text_4">
      <!-- 72 -->
      <g transform="translate(599.02126 270.048437)scale(0.1 -0.1)">
       <defs>
        <path id="DejaVuSans-37" d="M 525 4666 
L 3525 4666 
L 3525 4397 
L 1831 0 
L 1172 0 
L 2766 4134 
L 525 4134 
L 525 4666 
z
" transform="scale(0.015625)"/>
       </defs>
       <use xlink:href="#DejaVuSans-37"/>
       <use xlink:href="#DejaVuSans-32" x="63.623047"/>
      </g>
     </g>
    </g>
    <g id="xtick_5">
     <g id="line2d_9">
      <path d="M 765.163258 255.45 
L 765.163258 47.7 
" clip-path="url(#p049aa89964)" style="fill: none; stroke: #b0b0b0; stroke-width: 0.8; stroke-linecap: square"/>
     </g>
     <g id="line2d_10">
      <g>
       <use xlink:href="#m2d9783538d" x="765.163258" y="255.45" style="stroke: #000000; stroke-width: 0.8"/>
      </g>
     </g>
     <g id="text_5">
      <!-- 96 -->
      <g transform="translate(758.800758 270.048437)scale(0.1 -0.1)">
       <defs>
        <path id="DejaVuSans-39" d="M 703 97 
L 703 672 
Q 941 559 1184 500 
Q 1428 441 1663 441 
Q 2288 441 2617 861 
Q 2947 1281 2994 2138 
Q 2813 1869 2534 1725 
Q 2256 1581 1919 1581 
Q 1219 1581 811 2004 
Q 403 2428 403 3163 
Q 403 3881 828 4315 
Q 1253 4750 1959 4750 
Q 2769 4750 3195 4129 
Q 3622 3509 3622 2328 
Q 3622 1225 3098 567 
Q 2575 -91 1691 -91 
Q 1453 -91 1209 -44 
Q 966 3 703 97 
z
M 1959 2075 
Q 2384 2075 2632 2365 
Q 2881 2656 2881 3163 
Q 2881 3666 2632 3958 
Q 2384 4250 1959 4250 
Q 1534 4250 1286 3958 
Q 1038 3666 1038 3163 
Q 1038 2656 1286 2365 
Q 1534 2075 1959 2075 
z
" transform="scale(0.015625)"/>
        <path id="DejaVuSans-36" d="M 2113 2584 
Q 1688 2584 1439 2293 
Q 1191 2003 1191 1497 
Q 1191 994 1439 701 
Q 1688 409 2113 409 
Q 2538 409 2786 701 
Q 3034 994 3034 1497 
Q 3034 2003 2786 2293 
Q 2538 2584 2113 2584 
z
M 3366 4563 
L 3366 3988 
Q 3128 4100 2886 4159 
Q 2644 4219 2406 4219 
Q 1781 4219 1451 3797 
Q 1122 3375 1075 2522 
Q 1259 2794 1537 2939 
Q 1816 3084 2150 3084 
Q 2853 3084 3261 2657 
Q 3669 2231 3669 1497 
Q 3669 778 3244 343 
Q 2819 -91 2113 -91 
Q 1303 -91 875 529 
Q 447 1150 447 2328 
Q 447 3434 972 4092 
Q 1497 4750 2381 4750 
Q 2619 4750 2861 4703 
Q 3103 4656 3366 4563 
z
" transform="scale(0.015625)"/>
       </defs>
       <use xlink:href="#DejaVuSans-39"/>
       <use xlink:href="#DejaVuSans-36" x="63.623047"/>
      </g>
     </g>
    </g>
    <g id="xtick_6">
     <g id="line2d_11">
      <path d="M 924.942755 255.45 
L 924.942755 47.7 
" clip-path="url(#p049aa89964)" style="fill: none; stroke: #b0b0b0; stroke-width: 0.8; stroke-linecap: square"/>
     </g>
     <g id="line2d_12">
      <g>
       <use xlink:href="#m2d9783538d" x="924.942755" y="255.45" style="stroke: #000000; stroke-width: 0.8"/>
      </g>
     </g>
     <g id="text_6">
      <!-- 120 -->
      <g transform="translate(915.399005 270.048437)scale(0.1 -0.1)">
       <defs>
        <path id="DejaVuSans-31" d="M 794 531 
L 1825 531 
L 1825 4091 
L 703 3866 
L 703 4441 
L 1819 4666 
L 2450 4666 
L 2450 531 
L 3481 531 
L 3481 0 
L 794 0 
L 794 531 
z
" transform="scale(0.015625)"/>
       </defs>
       <use xlink:href="#DejaVuSans-31"/>
       <use xlink:href="#DejaVuSans-32" x="63.623047"/>
       <use xlink:href="#DejaVuSans-30" x="127.246094"/>
      </g>
     </g>
    </g>
    <g id="xtick_7">
     <g id="line2d_13">
      <defs>
       <path id="m7f075f1f57" d="M 0 0 
L 0 2 
" style="stroke: #000000; stroke-width: 0.6"/>
      </defs>
      <g>
       <use xlink:href="#m7f075f1f57" x="139.360227" y="255.45" style="stroke: #000000; stroke-width: 0.6"/>
      </g>
     </g>
    </g>
    <g id="xtick_8">
     <g id="line2d_14">
      <g>
       <use xlink:href="#m7f075f1f57" x="159.332664" y="255.45" style="stroke: #000000; stroke-width: 0.6"/>
      </g>
     </g>
    </g>
    <g id="xtick_9">
     <g id="line2d_15">
      <g>
       <use xlink:href="#m7f075f1f57" x="179.305102" y="255.45" style="stroke: #000000; stroke-width: 0.6"/>
      </g>
     </g>
    </g>
    <g id="xtick_10">
     <g id="line2d_16">
      <g>
       <use xlink:href="#m7f075f1f57" x="199.277539" y="255.45" style="stroke: #000000; stroke-width: 0.6"/>
      </g>
     </g>
    </g>
    <g id="xtick_11">
     <g id="line2d_17">
      <g>
       <use xlink:href="#m7f075f1f57" x="219.249976" y="255.45" style="stroke: #000000; stroke-width: 0.6"/>
      </g>
     </g>
    </g>
    <g id="xtick_12">
     <g id="line2d_18">
      <g>
       <use xlink:href="#m7f075f1f57" x="239.222413" y="255.45" style="stroke: #000000; stroke-width: 0.6"/>
      </g>
     </g>
    </g>
    <g id="xtick_13">
     <g id="line2d_19">
      <g>
       <use xlink:href="#m7f075f1f57" x="259.19485" y="255.45" style="stroke: #000000; stroke-width: 0.6"/>
      </g>
     </g>
    </g>
    <g id="xtick_14">
     <g id="line2d_20">
      <g>
       <use xlink:href="#m7f075f1f57" x="279.167287" y="255.45" style="stroke: #000000; stroke-width: 0.6"/>
      </g>
     </g>
    </g>
    <g id="xtick_15">
     <g id="line2d_21">
      <g>
       <use xlink:href="#m7f075f1f57" x="299.139724" y="255.45" style="stroke: #000000; stroke-width: 0.6"/>
      </g>
     </g>
    </g>
    <g id="xtick_16">
     <g id="line2d_22">
      <g>
       <use xlink:href="#m7f075f1f57" x="319.112162" y="255.45" style="stroke: #000000; stroke-width: 0.6"/>
      </g>
     </g>
    </g>
    <g id="xtick_17">
     <g id="line2d_23">
      <g>
       <use xlink:href="#m7f075f1f57" x="339.084599" y="255.45" style="stroke: #000000; stroke-width: 0.6"/>
      </g>
     </g>
    </g>
    <g id="xtick_18">
     <g id="line2d_24">
      <g>
       <use xlink:href="#m7f075f1f57" x="359.057036" y="255.45" style="stroke: #000000; stroke-width: 0.6"/>
      </g>
     </g>
    </g>
    <g id="xtick_19">
     <g id="line2d_25">
      <g>
       <use xlink:href="#m7f075f1f57" x="379.029473" y="255.45" style="stroke: #000000; stroke-width: 0.6"/>
      </g>
     </g>
    </g>
    <g id="xtick_20">
     <g id="line2d_26">
      <g>
       <use xlink:href="#m7f075f1f57" x="399.00191" y="255.45" style="stroke: #000000; stroke-width: 0.6"/>
      </g>
     </g>
    </g>
    <g id="xtick_21">
     <g id="line2d_27">
      <g>
       <use xlink:href="#m7f075f1f57" x="418.974347" y="255.45" style="stroke: #000000; stroke-width: 0.6"/>
      </g>
     </g>
    </g>
    <g id="xtick_22">
     <g id="line2d_28">
      <g>
       <use xlink:href="#m7f075f1f57" x="438.946784" y="255.45" style="stroke: #000000; stroke-width: 0.6"/>
      </g>
     </g>
    </g>
    <g id="xtick_23">
     <g id="line2d_29">
      <g>
       <use xlink:href="#m7f075f1f57" x="458.919221" y="255.45" style="stroke: #000000; stroke-width: 0.6"/>
      </g>
     </g>
    </g>
    <g id="xtick_24">
     <g id="line2d_30">
      <g>
       <use xlink:href="#m7f075f1f57" x="478.891659" y="255.45" style="stroke: #000000; stroke-width: 0.6"/>
      </g>
     </g>
    </g>
    <g id="xtick_25">
     <g id="line2d_31">
      <g>
       <use xlink:href="#m7f075f1f57" x="498.864096" y="255.45" style="stroke: #000000; stroke-width: 0.6"/>
      </g>
     </g>
    </g>
    <g id="xtick_26">
     <g id="line2d_32">
      <g>
       <use xlink:href="#m7f075f1f57" x="518.836533" y="255.45" style="stroke: #000000; stroke-width: 0.6"/>
      </g>
     </g>
    </g>
    <g id="xtick_27">
     <g id="line2d_33">
      <g>
       <use xlink:href="#m7f075f1f57" x="538.80897" y="255.45" style="stroke: #000000; stroke-width: 0.6"/>
      </g>
     </g>
    </g>
    <g id="xtick_28">
     <g id="line2d_34">
      <g>
       <use xlink:href="#m7f075f1f57" x="558.781407" y="255.45" style="stroke: #000000; stroke-width: 0.6"/>
      </g>
     </g>
    </g>
    <g id="xtick_29">
     <g id="line2d_35">
      <g>
       <use xlink:href="#m7f075f1f57" x="578.753844" y="255.45" style="stroke: #000000; stroke-width: 0.6"/>
      </g>
     </g>
    </g>
    <g id="xtick_30">
     <g id="line2d_36">
      <g>
       <use xlink:href="#m7f075f1f57" x="598.726281" y="255.45" style="stroke: #000000; stroke-width: 0.6"/>
      </g>
     </g>
    </g>
    <g id="xtick_31">
     <g id="line2d_37">
      <g>
       <use xlink:href="#m7f075f1f57" x="618.698719" y="255.45" style="stroke: #000000; stroke-width: 0.6"/>
      </g>
     </g>
    </g>
    <g id="xtick_32">
     <g id="line2d_38">
      <g>
       <use xlink:href="#m7f075f1f57" x="638.671156" y="255.45" style="stroke: #000000; stroke-width: 0.6"/>
      </g>
     </g>
    </g>
    <g id="xtick_33">
     <g id="line2d_39">
      <g>
       <use xlink:href="#m7f075f1f57" x="658.643593" y="255.45" style="stroke: #000000; stroke-width: 0.6"/>
      </g>
     </g>
    </g>
    <g id="xtick_34">
     <g id="line2d_40">
      <g>
       <use xlink:href="#m7f075f1f57" x="678.61603" y="255.45" style="stroke: #000000; stroke-width: 0.6"/>
      </g>
     </g>
    </g>
    <g id="xtick_35">
     <g id="line2d_41">
      <g>
       <use xlink:href="#m7f075f1f57" x="698.588467" y="255.45" style="stroke: #000000; stroke-width: 0.6"/>
      </g>
     </g>
    </g>
    <g id="xtick_36">
     <g id="line2d_42">
      <g>
       <use xlink:href="#m7f075f1f57" x="718.560904" y="255.45" style="stroke: #000000; stroke-width: 0.6"/>
      </g>
     </g>
    </g>
    <g id="xtick_37">
     <g id="line2d_43">
      <g>
       <use xlink:href="#m7f075f1f57" x="738.533341" y="255.45" style="stroke: #000000; stroke-width: 0.6"/>
      </g>
     </g>
    </g>
    <g id="xtick_38">
     <g id="line2d_44">
      <g>
       <use xlink:href="#m7f075f1f57" x="758.505779" y="255.45" style="stroke: #000000; stroke-width: 0.6"/>
      </g>
     </g>
    </g>
    <g id="xtick_39">
     <g id="line2d_45">
      <g>
       <use xlink:href="#m7f075f1f57" x="778.478216" y="255.45" style="stroke: #000000; stroke-width: 0.6"/>
      </g>
     </g>
    </g>
    <g id="xtick_40">
     <g id="line2d_46">
      <g>
       <use xlink:href="#m7f075f1f57" x="798.450653" y="255.45" style="stroke: #000000; stroke-width: 0.6"/>
      </g>
     </g>
    </g>
    <g id="xtick_41">
     <g id="line2d_47">
      <g>
       <use xlink:href="#m7f075f1f57" x="818.42309" y="255.45" style="stroke: #000000; stroke-width: 0.6"/>
      </g>
     </g>
    </g>
    <g id="xtick_42">
     <g id="line2d_48">
      <g>
       <use xlink:href="#m7f075f1f57" x="838.395527" y="255.45" style="stroke: #000000; stroke-width: 0.6"/>
      </g>
     </g>
    </g>
    <g id="xtick_43">
     <g id="line2d_49">
      <g>
       <use xlink:href="#m7f075f1f57" x="858.367964" y="255.45" style="stroke: #000000; stroke-width: 0.6"/>
      </g>
     </g>
    </g>
    <g id="xtick_44">
     <g id="line2d_50">
      <g>
       <use xlink:href="#m7f075f1f57" x="878.340401" y="255.45" style="stroke: #000000; stroke-width: 0.6"/>
      </g>
     </g>
    </g>
    <g id="xtick_45">
     <g id="line2d_51">
      <g>
       <use xlink:href="#m7f075f1f57" x="898.312838" y="255.45" style="stroke: #000000; stroke-width: 0.6"/>
      </g>
     </g>
    </g>
    <g id="xtick_46">
     <g id="line2d_52">
      <g>
       <use xlink:href="#m7f075f1f57" x="918.285276" y="255.45" style="stroke: #000000; stroke-width: 0.6"/>
      </g>
     </g>
    </g>
    <g id="xtick_47">
     <g id="line2d_53">
      <g>
       <use xlink:href="#m7f075f1f57" x="938.257713" y="255.45" style="stroke: #000000; stroke-width: 0.6"/>
      </g>
     </g>
    </g>
    <g id="xtick_48">
     <g id="line2d_54">
      <g>
       <use xlink:href="#m7f075f1f57" x="958.23015" y="255.45" style="stroke: #000000; stroke-width: 0.6"/>
      </g>
     </g>
    </g>
    <g id="xtick_49">
     <g id="line2d_55">
      <g>
       <use xlink:href="#m7f075f1f57" x="978.202587" y="255.45" style="stroke: #000000; stroke-width: 0.6"/>
      </g>
     </g>
    </g>
    <g id="xtick_50">
     <g id="line2d_56">
      <g>
       <use xlink:href="#m7f075f1f57" x="998.175024" y="255.45" style="stroke: #000000; stroke-width: 0.6"/>
      </g>
     </g>
    </g>
    <g id="xtick_51">
     <g id="line2d_57">
      <g>
       <use xlink:href="#m7f075f1f57" x="1018.147461" y="255.45" style="stroke: #000000; stroke-width: 0.6"/>
      </g>
     </g>
    </g>
    <g id="xtick_52">
     <g id="line2d_58">
      <g>
       <use xlink:href="#m7f075f1f57" x="1038.119898" y="255.45" style="stroke: #000000; stroke-width: 0.6"/>
      </g>
     </g>
    </g>
    <g id="xtick_53">
     <g id="line2d_59">
      <g>
       <use xlink:href="#m7f075f1f57" x="1058.092336" y="255.45" style="stroke: #000000; stroke-width: 0.6"/>
      </g>
     </g>
    </g>
    <g id="xtick_54">
     <g id="line2d_60">
      <g>
       <use xlink:href="#m7f075f1f57" x="1078.064773" y="255.45" style="stroke: #000000; stroke-width: 0.6"/>
      </g>
     </g>
    </g>
    <g id="text_7">
     <!-- Temps (en heures) -->
     <g transform="translate(562.419531 283.726562)scale(0.1 -0.1)">
      <defs>
       <path id="DejaVuSans-54" d="M -19 4666 
L 3928 4666 
L 3928 4134 
L 2272 4134 
L 2272 0 
L 1638 0 
L 1638 4134 
L -19 4134 
L -19 4666 
z
" transform="scale(0.015625)"/>
       <path id="DejaVuSans-65" d="M 3597 1894 
L 3597 1613 
L 953 1613 
Q 991 1019 1311 708 
Q 1631 397 2203 397 
Q 2534 397 2845 478 
Q 3156 559 3463 722 
L 3463 178 
Q 3153 47 2828 -22 
Q 2503 -91 2169 -91 
Q 1331 -91 842 396 
Q 353 884 353 1716 
Q 353 2575 817 3079 
Q 1281 3584 2069 3584 
Q 2775 3584 3186 3129 
Q 3597 2675 3597 1894 
z
M 3022 2063 
Q 3016 2534 2758 2815 
Q 2500 3097 2075 3097 
Q 1594 3097 1305 2825 
Q 1016 2553 972 2059 
L 3022 2063 
z
" transform="scale(0.015625)"/>
       <path id="DejaVuSans-6d" d="M 3328 2828 
Q 3544 3216 3844 3400 
Q 4144 3584 4550 3584 
Q 5097 3584 5394 3201 
Q 5691 2819 5691 2113 
L 5691 0 
L 5113 0 
L 5113 2094 
Q 5113 2597 4934 2840 
Q 4756 3084 4391 3084 
Q 3944 3084 3684 2787 
Q 3425 2491 3425 1978 
L 3425 0 
L 2847 0 
L 2847 2094 
Q 2847 2600 2669 2842 
Q 2491 3084 2119 3084 
Q 1678 3084 1418 2786 
Q 1159 2488 1159 1978 
L 1159 0 
L 581 0 
L 581 3500 
L 1159 3500 
L 1159 2956 
Q 1356 3278 1631 3431 
Q 1906 3584 2284 3584 
Q 2666 3584 2933 3390 
Q 3200 3197 3328 2828 
z
" transform="scale(0.015625)"/>
       <path id="DejaVuSans-70" d="M 1159 525 
L 1159 -1331 
L 581 -1331 
L 581 3500 
L 1159 3500 
L 1159 2969 
Q 1341 3281 1617 3432 
Q 1894 3584 2278 3584 
Q 2916 3584 3314 3078 
Q 3713 2572 3713 1747 
Q 3713 922 3314 415 
Q 2916 -91 2278 -91 
Q 1894 -91 1617 61 
Q 1341 213 1159 525 
z
M 3116 1747 
Q 3116 2381 2855 2742 
Q 2594 3103 2138 3103 
Q 1681 3103 1420 2742 
Q 1159 2381 1159 1747 
Q 1159 1113 1420 752 
Q 1681 391 2138 391 
Q 2594 391 2855 752 
Q 3116 1113 3116 1747 
z
" transform="scale(0.015625)"/>
       <path id="DejaVuSans-73" d="M 2834 3397 
L 2834 2853 
Q 2591 2978 2328 3040 
Q 2066 3103 1784 3103 
Q 1356 3103 1142 2972 
Q 928 2841 928 2578 
Q 928 2378 1081 2264 
Q 1234 2150 1697 2047 
L 1894 2003 
Q 2506 1872 2764 1633 
Q 3022 1394 3022 966 
Q 3022 478 2636 193 
Q 2250 -91 1575 -91 
Q 1294 -91 989 -36 
Q 684 19 347 128 
L 347 722 
Q 666 556 975 473 
Q 1284 391 1588 391 
Q 1994 391 2212 530 
Q 2431 669 2431 922 
Q 2431 1156 2273 1281 
Q 2116 1406 1581 1522 
L 1381 1569 
Q 847 1681 609 1914 
Q 372 2147 372 2553 
Q 372 3047 722 3315 
Q 1072 3584 1716 3584 
Q 2034 3584 2315 3537 
Q 2597 3491 2834 3397 
z
" transform="scale(0.015625)"/>
       <path id="DejaVuSans-20" transform="scale(0.015625)"/>
       <path id="DejaVuSans-28" d="M 1984 4856 
Q 1566 4138 1362 3434 
Q 1159 2731 1159 2009 
Q 1159 1288 1364 580 
Q 1569 -128 1984 -844 
L 1484 -844 
Q 1016 -109 783 600 
Q 550 1309 550 2009 
Q 550 2706 781 3412 
Q 1013 4119 1484 4856 
L 1984 4856 
z
" transform="scale(0.015625)"/>
       <path id="DejaVuSans-6e" d="M 3513 2113 
L 3513 0 
L 2938 0 
L 2938 2094 
Q 2938 2591 2744 2837 
Q 2550 3084 2163 3084 
Q 1697 3084 1428 2787 
Q 1159 2491 1159 1978 
L 1159 0 
L 581 0 
L 581 3500 
L 1159 3500 
L 1159 2956 
Q 1366 3272 1645 3428 
Q 1925 3584 2291 3584 
Q 2894 3584 3203 3211 
Q 3513 2838 3513 2113 
z
" transform="scale(0.015625)"/>
       <path id="DejaVuSans-68" d="M 3513 2113 
L 3513 0 
L 2938 0 
L 2938 2094 
Q 2938 2591 2744 2837 
Q 2550 3084 2163 3084 
Q 1697 3084 1428 2787 
Q 1159 2491 1159 1978 
L 1159 0 
L 581 0 
L 581 4863 
L 1159 4863 
L 1159 2956 
Q 1366 3272 1645 3428 
Q 1925 3584 2291 3584 
Q 2894 3584 3203 3211 
Q 3513 2838 3513 2113 
z
" transform="scale(0.015625)"/>
       <path id="DejaVuSans-75" d="M 544 1381 
L 544 3500 
L 1119 3500 
L 1119 1403 
Q 1119 906 1312 657 
Q 1506 409 1894 409 
Q 2359 409 2629 706 
Q 2900 1003 2900 1516 
L 2900 3500 
L 3475 3500 
L 3475 0 
L 2900 0 
L 2900 538 
Q 2691 219 2414 64 
Q 2138 -91 1772 -91 
Q 1169 -91 856 284 
Q 544 659 544 1381 
z
M 1991 3584 
L 1991 3584 
z
" transform="scale(0.015625)"/>
       <path id="DejaVuSans-72" d="M 2631 2963 
Q 2534 3019 2420 3045 
Q 2306 3072 2169 3072 
Q 1681 3072 1420 2755 
Q 1159 2438 1159 1844 
L 1159 0 
L 581 0 
L 581 3500 
L 1159 3500 
L 1159 2956 
Q 1341 3275 1631 3429 
Q 1922 3584 2338 3584 
Q 2397 3584 2469 3576 
Q 2541 3569 2628 3553 
L 2631 2963 
z
" transform="scale(0.015625)"/>
       <path id="DejaVuSans-29" d="M 513 4856 
L 1013 4856 
Q 1481 4119 1714 3412 
Q 1947 2706 1947 2009 
Q 1947 1309 1714 600 
Q 1481 -109 1013 -844 
L 513 -844 
Q 928 -128 1133 580 
Q 1338 1288 1338 2009 
Q 1338 2731 1133 3434 
Q 928 4138 513 4856 
z
" transform="scale(0.015625)"/>
      </defs>
      <use xlink:href="#DejaVuSans-54"/>
      <use xlink:href="#DejaVuSans-65" x="44.083984"/>
      <use xlink:href="#DejaVuSans-6d" x="105.607422"/>
      <use xlink:href="#DejaVuSans-70" x="203.019531"/>
      <use xlink:href="#DejaVuSans-73" x="266.496094"/>
      <use xlink:href="#DejaVuSans-20" x="318.595703"/>
      <use xlink:href="#DejaVuSans-28" x="350.382812"/>
      <use xlink:href="#DejaVuSans-65" x="389.396484"/>
      <use xlink:href="#DejaVuSans-6e" x="450.919922"/>
      <use xlink:href="#DejaVuSans-20" x="514.298828"/>
      <use xlink:href="#DejaVuSans-68" x="546.085938"/>
      <use xlink:href="#DejaVuSans-65" x="609.464844"/>
      <use xlink:href="#DejaVuSans-75" x="670.988281"/>
      <use xlink:href="#DejaVuSans-72" x="734.367188"/>
      <use xlink:href="#DejaVuSans-65" x="773.230469"/>
      <use xlink:href="#DejaVuSans-73" x="834.753906"/>
      <use xlink:href="#DejaVuSans-29" x="886.853516"/>
     </g>
    </g>
   </g>
   <g id="matplotlib.axis_2">
    <g id="ytick_1">
     <g id="line2d_61">
      <path d="M 92.425 219.250966 
L 1125 219.250966 
" clip-path="url(#p049aa89964)" style="fill: none; stroke: #b0b0b0; stroke-width: 0.8; stroke-linecap: square"/>
     </g>
     <g id="line2d_62">
      <defs>
       <path id="ma688785096" d="M 0 0 
L -3.5 0 
" style="stroke: #000000; stroke-width: 0.8"/>
      </defs>
      <g>
       <use xlink:href="#ma688785096" x="92.425" y="219.250966" style="stroke: #000000; stroke-width: 0.8"/>
      </g>
     </g>
     <g id="text_8">
      <!-- 20 -->
      <g transform="translate(72.7 223.050185)scale(0.1 -0.1)">
       <use xlink:href="#DejaVuSans-32"/>
       <use xlink:href="#DejaVuSans-30" x="63.623047"/>
      </g>
     </g>
    </g>
    <g id="ytick_2">
     <g id="line2d_63">
      <path d="M 92.425 178.402337 
L 1125 178.402337 
" clip-path="url(#p049aa89964)" style="fill: none; stroke: #b0b0b0; stroke-width: 0.8; stroke-linecap: square"/>
     </g>
     <g id="line2d_64">
      <g>
       <use xlink:href="#ma688785096" x="92.425" y="178.402337" style="stroke: #000000; stroke-width: 0.8"/>
      </g>
     </g>
     <g id="text_9">
      <!-- 40 -->
      <g transform="translate(72.7 182.201556)scale(0.1 -0.1)">
       <use xlink:href="#DejaVuSans-34"/>
       <use xlink:href="#DejaVuSans-30" x="63.623047"/>
      </g>
     </g>
    </g>
    <g id="ytick_3">
     <g id="line2d_65">
      <path d="M 92.425 137.553708 
L 1125 137.553708 
" clip-path="url(#p049aa89964)" style="fill: none; stroke: #b0b0b0; stroke-width: 0.8; stroke-linecap: square"/>
     </g>
     <g id="line2d_66">
      <g>
       <use xlink:href="#ma688785096" x="92.425" y="137.553708" style="stroke: #000000; stroke-width: 0.8"/>
      </g>
     </g>
     <g id="text_10">
      <!-- 60 -->
      <g transform="translate(72.7 141.352927)scale(0.1 -0.1)">
       <use xlink:href="#DejaVuSans-36"/>
       <use xlink:href="#DejaVuSans-30" x="63.623047"/>
      </g>
     </g>
    </g>
    <g id="ytick_4">
     <g id="line2d_67">
      <path d="M 92.425 96.705079 
L 1125 96.705079 
" clip-path="url(#p049aa89964)" style="fill: none; stroke: #b0b0b0; stroke-width: 0.8; stroke-linecap: square"/>
     </g>
     <g id="line2d_68">
      <g>
       <use xlink:href="#ma688785096" x="92.425" y="96.705079" style="stroke: #000000; stroke-width: 0.8"/>
      </g>
     </g>
     <g id="text_11">
      <!-- 80 -->
      <g transform="translate(72.7 100.504298)scale(0.1 -0.1)">
       <use xlink:href="#DejaVuSans-38"/>
       <use xlink:href="#DejaVuSans-30" x="63.623047"/>
      </g>
     </g>
    </g>
    <g id="ytick_5">
     <g id="line2d_69">
      <path d="M 92.425 55.85645 
L 1125 55.85645 
" clip-path="url(#p049aa89964)" style="fill: none; stroke: #b0b0b0; stroke-width: 0.8; stroke-linecap: square"/>
     </g>
     <g id="line2d_70">
      <g>
       <use xlink:href="#ma688785096" x="92.425" y="55.85645" style="stroke: #000000; stroke-width: 0.8"/>
      </g>
     </g>
     <g id="text_12">
      <!-- 100 -->
      <g transform="translate(66.3375 59.655669)scale(0.1 -0.1)">
       <use xlink:href="#DejaVuSans-31"/>
       <use xlink:href="#DejaVuSans-30" x="63.623047"/>
       <use xlink:href="#DejaVuSans-30" x="127.246094"/>
      </g>
     </g>
    </g>
   </g>
   <g id="line2d_71">
    <path d="M 139.360227 227.012206 
L 159.332664 217.208535 
L 179.305102 215.57459 
L 199.277539 218.025507 
L 219.249976 226.603719 
L 239.222413 243.5559 
L 259.19485 245.394089 
L 279.167287 240.083767 
L 299.139724 229.25888 
L 319.112162 220.272182 
L 339.084599 220.476425 
L 359.057036 220.884911 
L 379.029473 228.237665 
L 399.00191 245.189846 
L 418.974347 245.189846 
L 438.946784 238.449822 
L 458.919221 232.935257 
L 478.891659 224.969774 
L 498.864096 220.680668 
L 518.836533 221.293398 
L 538.80897 227.420692 
L 558.781407 237.837092 
L 578.753844 237.224363 
L 598.726281 234.773445 
L 618.698719 231.914041 
L 638.671156 223.540072 
L 658.643593 220.272182 
L 678.61603 223.744315 
L 698.588467 229.463123 
L 718.560904 237.428606 
L 738.533341 238.245579 
L 758.505779 236.611634 
L 778.478216 235.590418 
L 798.450653 233.956473 
L 818.42309 217.208535 
L 838.395527 222.518856 
L 858.367964 232.935257 
L 878.340401 238.041336 
L 898.312838 237.837092 
L 918.285276 234.569202 
L 938.257713 229.463123 
L 958.23015 221.293398 
L 978.202587 219.659452 
L 998.175024 220.884911 
L 1018.147461 229.463123 
L 1038.119898 244.781359 
L 1058.092336 246.006818 
L 1078.064773 239.471038 
" clip-path="url(#p049aa89964)" style="fill: none; stroke: #1f77b4; stroke-width: 1.5; stroke-linecap: square"/>
   </g>
   <g id="line2d_72">
    <path d="M 139.360227 135.511277 
L 159.332664 176.359906 
L 179.305102 176.359906 
L 199.277539 170.232611 
L 219.249976 129.383982 
L 239.222413 72.195902 
L 259.19485 72.195902 
L 279.167287 86.492922 
L 299.139724 133.468845 
L 319.112162 166.147748 
L 339.084599 168.19018 
L 359.057036 157.978023 
L 379.029473 125.299119 
L 399.00191 74.238333 
L 418.974347 86.492922 
L 438.946784 113.044531 
L 458.919221 133.468845 
L 478.891659 157.978023 
L 498.864096 174.317474 
L 518.836533 172.275043 
L 538.80897 139.59614 
L 558.781407 88.535353 
L 578.753844 92.620216 
L 598.726281 111.002099 
L 618.698719 131.426414 
L 638.671156 166.147748 
L 658.643593 149.808297 
L 678.61603 125.299119 
L 698.588467 90.577785 
L 718.560904 64.026176 
L 738.533341 66.068607 
L 758.505779 70.15347 
L 778.478216 70.15347 
L 798.450653 78.323196 
L 818.42309 160.020454 
L 838.395527 125.299119 
L 858.367964 94.662648 
L 878.340401 82.408059 
L 898.312838 90.577785 
L 918.285276 117.129394 
L 938.257713 137.553708 
L 958.23015 178.402337 
L 978.202587 188.614494 
L 998.175024 174.317474 
L 1018.147461 137.553708 
L 1038.119898 78.323196 
L 1058.092336 82.408059 
L 1078.064773 104.874805 
" clip-path="url(#p049aa89964)" style="fill: none; stroke: #ff7f0e; stroke-width: 1.5; stroke-linecap: square"/>
   </g>
   <g id="line2d_73">
    <path d="M 139.360227 57.694638 
L 159.332664 58.001003 
L 179.305102 57.898881 
L 199.277539 57.551668 
L 219.249976 57.245303 
L 239.222413 57.306576 
L 259.19485 57.429122 
L 279.167287 57.245303 
L 299.139724 57.18403 
L 319.112162 57.469971 
L 339.084599 57.490395 
L 359.057036 57.286152 
L 379.029473 57.163606 
L 399.00191 57.143182 
L 418.974347 57.306576 
L 438.946784 57.18403 
L 458.919221 57.18403 
L 478.891659 57.572092 
L 498.864096 57.633365 
L 518.836533 57.469971 
L 538.80897 57.408698 
L 558.781407 57.612941 
L 578.753844 57.837609 
L 598.726281 57.776336 
L 618.698719 57.858033 
L 638.671156 58.368641 
L 658.643593 58.389065 
L 678.61603 58.164398 
L 698.588467 58.184822 
L 718.560904 58.368641 
L 738.533341 58.429914 
L 758.505779 58.491187 
L 778.478216 58.491187 
L 798.450653 58.940521 
L 818.42309 59.226462 
L 838.395527 58.920097 
L 858.367964 58.858824 
L 878.340401 59.12434 
L 898.312838 59.267311 
L 918.285276 59.226462 
L 938.257713 59.246886 
L 958.23015 59.410281 
L 978.202587 59.369432 
L 998.175024 59.144765 
L 1018.147461 58.960946 
L 1038.119898 59.001794 
L 1058.092336 58.98137 
L 1078.064773 58.756703 
" clip-path="url(#p049aa89964)" style="fill: none; stroke: #2ca02c; stroke-width: 1.5; stroke-linecap: square"/>
   </g>
   <g id="patch_3">
    <path d="M 92.425 255.45 
L 92.425 47.7 
" style="fill: none; stroke: #000000; stroke-width: 0.8; stroke-linejoin: miter; stroke-linecap: square"/>
   </g>
   <g id="patch_4">
    <path d="M 1125 255.45 
L 1125 47.7 
" style="fill: none; stroke: #000000; stroke-width: 0.8; stroke-linejoin: miter; stroke-linecap: square"/>
   </g>
   <g id="patch_5">
    <path d="M 92.425 255.45 
L 1125 255.45 
" style="fill: none; stroke: #000000; stroke-width: 0.8; stroke-linejoin: miter; stroke-linecap: square"/>
   </g>
   <g id="patch_6">
    <path d="M 92.425 47.7 
L 1125 47.7 
" style="fill: none; stroke: #000000; stroke-width: 0.8; stroke-linejoin: miter; stroke-linecap: square"/>
   </g>
   <g id="text_13">
    <!-- Observations de Météo France -->
    <g transform="translate(517.29125 41.7)scale(0.12 -0.12)">
     <defs>
      <path id="DejaVuSans-4f" d="M 2522 4238 
Q 1834 4238 1429 3725 
Q 1025 3213 1025 2328 
Q 1025 1447 1429 934 
Q 1834 422 2522 422 
Q 3209 422 3611 934 
Q 4013 1447 4013 2328 
Q 4013 3213 3611 3725 
Q 3209 4238 2522 4238 
z
M 2522 4750 
Q 3503 4750 4090 4092 
Q 4678 3434 4678 2328 
Q 4678 1225 4090 567 
Q 3503 -91 2522 -91 
Q 1538 -91 948 565 
Q 359 1222 359 2328 
Q 359 3434 948 4092 
Q 1538 4750 2522 4750 
z
" transform="scale(0.015625)"/>
      <path id="DejaVuSans-62" d="M 3116 1747 
Q 3116 2381 2855 2742 
Q 2594 3103 2138 3103 
Q 1681 3103 1420 2742 
Q 1159 2381 1159 1747 
Q 1159 1113 1420 752 
Q 1681 391 2138 391 
Q 2594 391 2855 752 
Q 3116 1113 3116 1747 
z
M 1159 2969 
Q 1341 3281 1617 3432 
Q 1894 3584 2278 3584 
Q 2916 3584 3314 3078 
Q 3713 2572 3713 1747 
Q 3713 922 3314 415 
Q 2916 -91 2278 -91 
Q 1894 -91 1617 61 
Q 1341 213 1159 525 
L 1159 0 
L 581 0 
L 581 4863 
L 1159 4863 
L 1159 2969 
z
" transform="scale(0.015625)"/>
      <path id="DejaVuSans-76" d="M 191 3500 
L 800 3500 
L 1894 563 
L 2988 3500 
L 3597 3500 
L 2284 0 
L 1503 0 
L 191 3500 
z
" transform="scale(0.015625)"/>
      <path id="DejaVuSans-61" d="M 2194 1759 
Q 1497 1759 1228 1600 
Q 959 1441 959 1056 
Q 959 750 1161 570 
Q 1363 391 1709 391 
Q 2188 391 2477 730 
Q 2766 1069 2766 1631 
L 2766 1759 
L 2194 1759 
z
M 3341 1997 
L 3341 0 
L 2766 0 
L 2766 531 
Q 2569 213 2275 61 
Q 1981 -91 1556 -91 
Q 1019 -91 701 211 
Q 384 513 384 1019 
Q 384 1609 779 1909 
Q 1175 2209 1959 2209 
L 2766 2209 
L 2766 2266 
Q 2766 2663 2505 2880 
Q 2244 3097 1772 3097 
Q 1472 3097 1187 3025 
Q 903 2953 641 2809 
L 641 3341 
Q 956 3463 1253 3523 
Q 1550 3584 1831 3584 
Q 2591 3584 2966 3190 
Q 3341 2797 3341 1997 
z
" transform="scale(0.015625)"/>
      <path id="DejaVuSans-74" d="M 1172 4494 
L 1172 3500 
L 2356 3500 
L 2356 3053 
L 1172 3053 
L 1172 1153 
Q 1172 725 1289 603 
Q 1406 481 1766 481 
L 2356 481 
L 2356 0 
L 1766 0 
Q 1100 0 847 248 
Q 594 497 594 1153 
L 594 3053 
L 172 3053 
L 172 3500 
L 594 3500 
L 594 4494 
L 1172 4494 
z
" transform="scale(0.015625)"/>
      <path id="DejaVuSans-69" d="M 603 3500 
L 1178 3500 
L 1178 0 
L 603 0 
L 603 3500 
z
M 603 4863 
L 1178 4863 
L 1178 4134 
L 603 4134 
L 603 4863 
z
" transform="scale(0.015625)"/>
      <path id="DejaVuSans-6f" d="M 1959 3097 
Q 1497 3097 1228 2736 
Q 959 2375 959 1747 
Q 959 1119 1226 758 
Q 1494 397 1959 397 
Q 2419 397 2687 759 
Q 2956 1122 2956 1747 
Q 2956 2369 2687 2733 
Q 2419 3097 1959 3097 
z
M 1959 3584 
Q 2709 3584 3137 3096 
Q 3566 2609 3566 1747 
Q 3566 888 3137 398 
Q 2709 -91 1959 -91 
Q 1206 -91 779 398 
Q 353 888 353 1747 
Q 353 2609 779 3096 
Q 1206 3584 1959 3584 
z
" transform="scale(0.015625)"/>
      <path id="DejaVuSans-64" d="M 2906 2969 
L 2906 4863 
L 3481 4863 
L 3481 0 
L 2906 0 
L 2906 525 
Q 2725 213 2448 61 
Q 2172 -91 1784 -91 
Q 1150 -91 751 415 
Q 353 922 353 1747 
Q 353 2572 751 3078 
Q 1150 3584 1784 3584 
Q 2172 3584 2448 3432 
Q 2725 3281 2906 2969 
z
M 947 1747 
Q 947 1113 1208 752 
Q 1469 391 1925 391 
Q 2381 391 2643 752 
Q 2906 1113 2906 1747 
Q 2906 2381 2643 2742 
Q 2381 3103 1925 3103 
Q 1469 3103 1208 2742 
Q 947 2381 947 1747 
z
" transform="scale(0.015625)"/>
      <path id="DejaVuSans-4d" d="M 628 4666 
L 1569 4666 
L 2759 1491 
L 3956 4666 
L 4897 4666 
L 4897 0 
L 4281 0 
L 4281 4097 
L 3078 897 
L 2444 897 
L 1241 4097 
L 1241 0 
L 628 0 
L 628 4666 
z
" transform="scale(0.015625)"/>
      <path id="DejaVuSans-e9" d="M 3597 1894 
L 3597 1613 
L 953 1613 
Q 991 1019 1311 708 
Q 1631 397 2203 397 
Q 2534 397 2845 478 
Q 3156 559 3463 722 
L 3463 178 
Q 3153 47 2828 -22 
Q 2503 -91 2169 -91 
Q 1331 -91 842 396 
Q 353 884 353 1716 
Q 353 2575 817 3079 
Q 1281 3584 2069 3584 
Q 2775 3584 3186 3129 
Q 3597 2675 3597 1894 
z
M 3022 2063 
Q 3016 2534 2758 2815 
Q 2500 3097 2075 3097 
Q 1594 3097 1305 2825 
Q 1016 2553 972 2059 
L 3022 2063 
z
M 2469 5119 
L 3091 5119 
L 2072 3944 
L 1594 3944 
L 2469 5119 
z
" transform="scale(0.015625)"/>
      <path id="DejaVuSans-46" d="M 628 4666 
L 3309 4666 
L 3309 4134 
L 1259 4134 
L 1259 2759 
L 3109 2759 
L 3109 2228 
L 1259 2228 
L 1259 0 
L 628 0 
L 628 4666 
z
" transform="scale(0.015625)"/>
      <path id="DejaVuSans-63" d="M 3122 3366 
L 3122 2828 
Q 2878 2963 2633 3030 
Q 2388 3097 2138 3097 
Q 1578 3097 1268 2742 
Q 959 2388 959 1747 
Q 959 1106 1268 751 
Q 1578 397 2138 397 
Q 2388 397 2633 464 
Q 2878 531 3122 666 
L 3122 134 
Q 2881 22 2623 -34 
Q 2366 -91 2075 -91 
Q 1284 -91 818 406 
Q 353 903 353 1747 
Q 353 2603 823 3093 
Q 1294 3584 2113 3584 
Q 2378 3584 2631 3529 
Q 2884 3475 3122 3366 
z
" transform="scale(0.015625)"/>
     </defs>
     <use xlink:href="#DejaVuSans-4f"/>
     <use xlink:href="#DejaVuSans-62" x="78.710938"/>
     <use xlink:href="#DejaVuSans-73" x="142.1875"/>
     <use xlink:href="#DejaVuSans-65" x="194.287109"/>
     <use xlink:href="#DejaVuSans-72" x="255.810547"/>
     <use xlink:href="#DejaVuSans-76" x="296.923828"/>
     <use xlink:href="#DejaVuSans-61" x="356.103516"/>
     <use xlink:href="#DejaVuSans-74" x="417.382812"/>
     <use xlink:href="#DejaVuSans-69" x="456.591797"/>
     <use xlink:href="#DejaVuSans-6f" x="484.375"/>
     <use xlink:href="#DejaVuSans-6e" x="545.556641"/>
     <use xlink:href="#DejaVuSans-73" x="608.935547"/>
     <use xlink:href="#DejaVuSans-20" x="661.035156"/>
     <use xlink:href="#DejaVuSans-64" x="692.822266"/>
     <use xlink:href="#DejaVuSans-65" x="756.298828"/>
     <use xlink:href="#DejaVuSans-20" x="817.822266"/>
     <use xlink:href="#DejaVuSans-4d" x="849.609375"/>
     <use xlink:href="#DejaVuSans-e9" x="935.888672"/>
     <use xlink:href="#DejaVuSans-74" x="997.412109"/>
     <use xlink:href="#DejaVuSans-e9" x="1036.621094"/>
     <use xlink:href="#DejaVuSans-6f" x="1098.144531"/>
     <use xlink:href="#DejaVuSans-20" x="1159.326172"/>
     <use xlink:href="#DejaVuSans-46" x="1191.113281"/>
     <use xlink:href="#DejaVuSans-72" x="1241.382812"/>
     <use xlink:href="#DejaVuSans-61" x="1282.496094"/>
     <use xlink:href="#DejaVuSans-6e" x="1343.775391"/>
     <use xlink:href="#DejaVuSans-63" x="1407.154297"/>
     <use xlink:href="#DejaVuSans-65" x="1462.134766"/>
    </g>
   </g>
  </g>
  <g id="axes_2">
   <g id="patch_7">
    <path d="M 92.425 569.325 
L 1125 569.325 
L 1125 361.575 
L 92.425 361.575 
z
" style="fill: #ffffff"/>
   </g>
   <g id="matplotlib.axis_3">
    <g id="xtick_55">
     <g id="line2d_74">
      <path d="M 126.045269 569.325 
L 126.045269 361.575 
" clip-path="url(#p244d8c25d1)" style="fill: none; stroke: #b0b0b0; stroke-width: 0.8; stroke-linecap: square"/>
     </g>
     <g id="line2d_75">
      <g>
       <use xlink:href="#m2d9783538d" x="126.045269" y="569.325" style="stroke: #000000; stroke-width: 0.8"/>
      </g>
     </g>
     <g id="text_14">
      <!-- 0 -->
      <g transform="translate(122.864019 583.923437)scale(0.1 -0.1)">
       <use xlink:href="#DejaVuSans-30"/>
      </g>
     </g>
    </g>
    <g id="xtick_56">
     <g id="line2d_76">
      <path d="M 285.824766 569.325 
L 285.824766 361.575 
" clip-path="url(#p244d8c25d1)" style="fill: none; stroke: #b0b0b0; stroke-width: 0.8; stroke-linecap: square"/>
     </g>
     <g id="line2d_77">
      <g>
       <use xlink:href="#m2d9783538d" x="285.824766" y="569.325" style="stroke: #000000; stroke-width: 0.8"/>
      </g>
     </g>
     <g id="text_15">
      <!-- 24 -->
      <g transform="translate(279.462266 583.923437)scale(0.1 -0.1)">
       <use xlink:href="#DejaVuSans-32"/>
       <use xlink:href="#DejaVuSans-34" x="63.623047"/>
      </g>
     </g>
    </g>
    <g id="xtick_57">
     <g id="line2d_78">
      <path d="M 445.604263 569.325 
L 445.604263 361.575 
" clip-path="url(#p244d8c25d1)" style="fill: none; stroke: #b0b0b0; stroke-width: 0.8; stroke-linecap: square"/>
     </g>
     <g id="line2d_79">
      <g>
       <use xlink:href="#m2d9783538d" x="445.604263" y="569.325" style="stroke: #000000; stroke-width: 0.8"/>
      </g>
     </g>
     <g id="text_16">
      <!-- 48 -->
      <g transform="translate(439.241763 583.923437)scale(0.1 -0.1)">
       <use xlink:href="#DejaVuSans-34"/>
       <use xlink:href="#DejaVuSans-38" x="63.623047"/>
      </g>
     </g>
    </g>
    <g id="xtick_58">
     <g id="line2d_80">
      <path d="M 605.38376 569.325 
L 605.38376 361.575 
" clip-path="url(#p244d8c25d1)" style="fill: none; stroke: #b0b0b0; stroke-width: 0.8; stroke-linecap: square"/>
     </g>
     <g id="line2d_81">
      <g>
       <use xlink:href="#m2d9783538d" x="605.38376" y="569.325" style="stroke: #000000; stroke-width: 0.8"/>
      </g>
     </g>
     <g id="text_17">
      <!-- 72 -->
      <g transform="translate(599.02126 583.923437)scale(0.1 -0.1)">
       <use xlink:href="#DejaVuSans-37"/>
       <use xlink:href="#DejaVuSans-32" x="63.623047"/>
      </g>
     </g>
    </g>
    <g id="xtick_59">
     <g id="line2d_82">
      <path d="M 765.163258 569.325 
L 765.163258 361.575 
" clip-path="url(#p244d8c25d1)" style="fill: none; stroke: #b0b0b0; stroke-width: 0.8; stroke-linecap: square"/>
     </g>
     <g id="line2d_83">
      <g>
       <use xlink:href="#m2d9783538d" x="765.163258" y="569.325" style="stroke: #000000; stroke-width: 0.8"/>
      </g>
     </g>
     <g id="text_18">
      <!-- 96 -->
      <g transform="translate(758.800758 583.923437)scale(0.1 -0.1)">
       <use xlink:href="#DejaVuSans-39"/>
       <use xlink:href="#DejaVuSans-36" x="63.623047"/>
      </g>
     </g>
    </g>
    <g id="xtick_60">
     <g id="line2d_84">
      <path d="M 924.942755 569.325 
L 924.942755 361.575 
" clip-path="url(#p244d8c25d1)" style="fill: none; stroke: #b0b0b0; stroke-width: 0.8; stroke-linecap: square"/>
     </g>
     <g id="line2d_85">
      <g>
       <use xlink:href="#m2d9783538d" x="924.942755" y="569.325" style="stroke: #000000; stroke-width: 0.8"/>
      </g>
     </g>
     <g id="text_19">
      <!-- 120 -->
      <g transform="translate(915.399005 583.923437)scale(0.1 -0.1)">
       <use xlink:href="#DejaVuSans-31"/>
       <use xlink:href="#DejaVuSans-32" x="63.623047"/>
       <use xlink:href="#DejaVuSans-30" x="127.246094"/>
      </g>
     </g>
    </g>
    <g id="xtick_61">
     <g id="line2d_86">
      <g>
       <use xlink:href="#m7f075f1f57" x="139.360227" y="569.325" style="stroke: #000000; stroke-width: 0.6"/>
      </g>
     </g>
    </g>
    <g id="xtick_62">
     <g id="line2d_87">
      <g>
       <use xlink:href="#m7f075f1f57" x="159.332664" y="569.325" style="stroke: #000000; stroke-width: 0.6"/>
      </g>
     </g>
    </g>
    <g id="xtick_63">
     <g id="line2d_88">
      <g>
       <use xlink:href="#m7f075f1f57" x="179.305102" y="569.325" style="stroke: #000000; stroke-width: 0.6"/>
      </g>
     </g>
    </g>
    <g id="xtick_64">
     <g id="line2d_89">
      <g>
       <use xlink:href="#m7f075f1f57" x="199.277539" y="569.325" style="stroke: #000000; stroke-width: 0.6"/>
      </g>
     </g>
    </g>
    <g id="xtick_65">
     <g id="line2d_90">
      <g>
       <use xlink:href="#m7f075f1f57" x="219.249976" y="569.325" style="stroke: #000000; stroke-width: 0.6"/>
      </g>
     </g>
    </g>
    <g id="xtick_66">
     <g id="line2d_91">
      <g>
       <use xlink:href="#m7f075f1f57" x="239.222413" y="569.325" style="stroke: #000000; stroke-width: 0.6"/>
      </g>
     </g>
    </g>
    <g id="xtick_67">
     <g id="line2d_92">
      <g>
       <use xlink:href="#m7f075f1f57" x="259.19485" y="569.325" style="stroke: #000000; stroke-width: 0.6"/>
      </g>
     </g>
    </g>
    <g id="xtick_68">
     <g id="line2d_93">
      <g>
       <use xlink:href="#m7f075f1f57" x="279.167287" y="569.325" style="stroke: #000000; stroke-width: 0.6"/>
      </g>
     </g>
    </g>
    <g id="xtick_69">
     <g id="line2d_94">
      <g>
       <use xlink:href="#m7f075f1f57" x="299.139724" y="569.325" style="stroke: #000000; stroke-width: 0.6"/>
      </g>
     </g>
    </g>
    <g id="xtick_70">
     <g id="line2d_95">
      <g>
       <use xlink:href="#m7f075f1f57" x="319.112162" y="569.325" style="stroke: #000000; stroke-width: 0.6"/>
      </g>
     </g>
    </g>
    <g id="xtick_71">
     <g id="line2d_96">
      <g>
       <use xlink:href="#m7f075f1f57" x="339.084599" y="569.325" style="stroke: #000000; stroke-width: 0.6"/>
      </g>
     </g>
    </g>
    <g id="xtick_72">
     <g id="line2d_97">
      <g>
       <use xlink:href="#m7f075f1f57" x="359.057036" y="569.325" style="stroke: #000000; stroke-width: 0.6"/>
      </g>
     </g>
    </g>
    <g id="xtick_73">
     <g id="line2d_98">
      <g>
       <use xlink:href="#m7f075f1f57" x="379.029473" y="569.325" style="stroke: #000000; stroke-width: 0.6"/>
      </g>
     </g>
    </g>
    <g id="xtick_74">
     <g id="line2d_99">
      <g>
       <use xlink:href="#m7f075f1f57" x="399.00191" y="569.325" style="stroke: #000000; stroke-width: 0.6"/>
      </g>
     </g>
    </g>
    <g id="xtick_75">
     <g id="line2d_100">
      <g>
       <use xlink:href="#m7f075f1f57" x="418.974347" y="569.325" style="stroke: #000000; stroke-width: 0.6"/>
      </g>
     </g>
    </g>
    <g id="xtick_76">
     <g id="line2d_101">
      <g>
       <use xlink:href="#m7f075f1f57" x="438.946784" y="569.325" style="stroke: #000000; stroke-width: 0.6"/>
      </g>
     </g>
    </g>
    <g id="xtick_77">
     <g id="line2d_102">
      <g>
       <use xlink:href="#m7f075f1f57" x="458.919221" y="569.325" style="stroke: #000000; stroke-width: 0.6"/>
      </g>
     </g>
    </g>
    <g id="xtick_78">
     <g id="line2d_103">
      <g>
       <use xlink:href="#m7f075f1f57" x="478.891659" y="569.325" style="stroke: #000000; stroke-width: 0.6"/>
      </g>
     </g>
    </g>
    <g id="xtick_79">
     <g id="line2d_104">
      <g>
       <use xlink:href="#m7f075f1f57" x="498.864096" y="569.325" style="stroke: #000000; stroke-width: 0.6"/>
      </g>
     </g>
    </g>
    <g id="xtick_80">
     <g id="line2d_105">
      <g>
       <use xlink:href="#m7f075f1f57" x="518.836533" y="569.325" style="stroke: #000000; stroke-width: 0.6"/>
      </g>
     </g>
    </g>
    <g id="xtick_81">
     <g id="line2d_106">
      <g>
       <use xlink:href="#m7f075f1f57" x="538.80897" y="569.325" style="stroke: #000000; stroke-width: 0.6"/>
      </g>
     </g>
    </g>
    <g id="xtick_82">
     <g id="line2d_107">
      <g>
       <use xlink:href="#m7f075f1f57" x="558.781407" y="569.325" style="stroke: #000000; stroke-width: 0.6"/>
      </g>
     </g>
    </g>
    <g id="xtick_83">
     <g id="line2d_108">
      <g>
       <use xlink:href="#m7f075f1f57" x="578.753844" y="569.325" style="stroke: #000000; stroke-width: 0.6"/>
      </g>
     </g>
    </g>
    <g id="xtick_84">
     <g id="line2d_109">
      <g>
       <use xlink:href="#m7f075f1f57" x="598.726281" y="569.325" style="stroke: #000000; stroke-width: 0.6"/>
      </g>
     </g>
    </g>
    <g id="xtick_85">
     <g id="line2d_110">
      <g>
       <use xlink:href="#m7f075f1f57" x="618.698719" y="569.325" style="stroke: #000000; stroke-width: 0.6"/>
      </g>
     </g>
    </g>
    <g id="xtick_86">
     <g id="line2d_111">
      <g>
       <use xlink:href="#m7f075f1f57" x="638.671156" y="569.325" style="stroke: #000000; stroke-width: 0.6"/>
      </g>
     </g>
    </g>
    <g id="xtick_87">
     <g id="line2d_112">
      <g>
       <use xlink:href="#m7f075f1f57" x="658.643593" y="569.325" style="stroke: #000000; stroke-width: 0.6"/>
      </g>
     </g>
    </g>
    <g id="xtick_88">
     <g id="line2d_113">
      <g>
       <use xlink:href="#m7f075f1f57" x="678.61603" y="569.325" style="stroke: #000000; stroke-width: 0.6"/>
      </g>
     </g>
    </g>
    <g id="xtick_89">
     <g id="line2d_114">
      <g>
       <use xlink:href="#m7f075f1f57" x="698.588467" y="569.325" style="stroke: #000000; stroke-width: 0.6"/>
      </g>
     </g>
    </g>
    <g id="xtick_90">
     <g id="line2d_115">
      <g>
       <use xlink:href="#m7f075f1f57" x="718.560904" y="569.325" style="stroke: #000000; stroke-width: 0.6"/>
      </g>
     </g>
    </g>
    <g id="xtick_91">
     <g id="line2d_116">
      <g>
       <use xlink:href="#m7f075f1f57" x="738.533341" y="569.325" style="stroke: #000000; stroke-width: 0.6"/>
      </g>
     </g>
    </g>
    <g id="xtick_92">
     <g id="line2d_117">
      <g>
       <use xlink:href="#m7f075f1f57" x="758.505779" y="569.325" style="stroke: #000000; stroke-width: 0.6"/>
      </g>
     </g>
    </g>
    <g id="xtick_93">
     <g id="line2d_118">
      <g>
       <use xlink:href="#m7f075f1f57" x="778.478216" y="569.325" style="stroke: #000000; stroke-width: 0.6"/>
      </g>
     </g>
    </g>
    <g id="xtick_94">
     <g id="line2d_119">
      <g>
       <use xlink:href="#m7f075f1f57" x="798.450653" y="569.325" style="stroke: #000000; stroke-width: 0.6"/>
      </g>
     </g>
    </g>
    <g id="xtick_95">
     <g id="line2d_120">
      <g>
       <use xlink:href="#m7f075f1f57" x="818.42309" y="569.325" style="stroke: #000000; stroke-width: 0.6"/>
      </g>
     </g>
    </g>
    <g id="xtick_96">
     <g id="line2d_121">
      <g>
       <use xlink:href="#m7f075f1f57" x="838.395527" y="569.325" style="stroke: #000000; stroke-width: 0.6"/>
      </g>
     </g>
    </g>
    <g id="xtick_97">
     <g id="line2d_122">
      <g>
       <use xlink:href="#m7f075f1f57" x="858.367964" y="569.325" style="stroke: #000000; stroke-width: 0.6"/>
      </g>
     </g>
    </g>
    <g id="xtick_98">
     <g id="line2d_123">
      <g>
       <use xlink:href="#m7f075f1f57" x="878.340401" y="569.325" style="stroke: #000000; stroke-width: 0.6"/>
      </g>
     </g>
    </g>
    <g id="xtick_99">
     <g id="line2d_124">
      <g>
       <use xlink:href="#m7f075f1f57" x="898.312838" y="569.325" style="stroke: #000000; stroke-width: 0.6"/>
      </g>
     </g>
    </g>
    <g id="xtick_100">
     <g id="line2d_125">
      <g>
       <use xlink:href="#m7f075f1f57" x="918.285276" y="569.325" style="stroke: #000000; stroke-width: 0.6"/>
      </g>
     </g>
    </g>
    <g id="xtick_101">
     <g id="line2d_126">
      <g>
       <use xlink:href="#m7f075f1f57" x="938.257713" y="569.325" style="stroke: #000000; stroke-width: 0.6"/>
      </g>
     </g>
    </g>
    <g id="xtick_102">
     <g id="line2d_127">
      <g>
       <use xlink:href="#m7f075f1f57" x="958.23015" y="569.325" style="stroke: #000000; stroke-width: 0.6"/>
      </g>
     </g>
    </g>
    <g id="xtick_103">
     <g id="line2d_128">
      <g>
       <use xlink:href="#m7f075f1f57" x="978.202587" y="569.325" style="stroke: #000000; stroke-width: 0.6"/>
      </g>
     </g>
    </g>
    <g id="xtick_104">
     <g id="line2d_129">
      <g>
       <use xlink:href="#m7f075f1f57" x="998.175024" y="569.325" style="stroke: #000000; stroke-width: 0.6"/>
      </g>
     </g>
    </g>
    <g id="xtick_105">
     <g id="line2d_130">
      <g>
       <use xlink:href="#m7f075f1f57" x="1018.147461" y="569.325" style="stroke: #000000; stroke-width: 0.6"/>
      </g>
     </g>
    </g>
    <g id="xtick_106">
     <g id="line2d_131">
      <g>
       <use xlink:href="#m7f075f1f57" x="1038.119898" y="569.325" style="stroke: #000000; stroke-width: 0.6"/>
      </g>
     </g>
    </g>
    <g id="xtick_107">
     <g id="line2d_132">
      <g>
       <use xlink:href="#m7f075f1f57" x="1058.092336" y="569.325" style="stroke: #000000; stroke-width: 0.6"/>
      </g>
     </g>
    </g>
    <g id="xtick_108">
     <g id="line2d_133">
      <g>
       <use xlink:href="#m7f075f1f57" x="1078.064773" y="569.325" style="stroke: #000000; stroke-width: 0.6"/>
      </g>
     </g>
    </g>
    <g id="text_20">
     <!-- Temps (en heures) -->
     <g transform="translate(562.419531 597.601562)scale(0.1 -0.1)">
      <use xlink:href="#DejaVuSans-54"/>
      <use xlink:href="#DejaVuSans-65" x="44.083984"/>
      <use xlink:href="#DejaVuSans-6d" x="105.607422"/>
      <use xlink:href="#DejaVuSans-70" x="203.019531"/>
      <use xlink:href="#DejaVuSans-73" x="266.496094"/>
      <use xlink:href="#DejaVuSans-20" x="318.595703"/>
      <use xlink:href="#DejaVuSans-28" x="350.382812"/>
      <use xlink:href="#DejaVuSans-65" x="389.396484"/>
      <use xlink:href="#DejaVuSans-6e" x="450.919922"/>
      <use xlink:href="#DejaVuSans-20" x="514.298828"/>
      <use xlink:href="#DejaVuSans-68" x="546.085938"/>
      <use xlink:href="#DejaVuSans-65" x="609.464844"/>
      <use xlink:href="#DejaVuSans-75" x="670.988281"/>
      <use xlink:href="#DejaVuSans-72" x="734.367188"/>
      <use xlink:href="#DejaVuSans-65" x="773.230469"/>
      <use xlink:href="#DejaVuSans-73" x="834.753906"/>
      <use xlink:href="#DejaVuSans-29" x="886.853516"/>
     </g>
    </g>
   </g>
   <g id="matplotlib.axis_4">
    <g id="ytick_6">
     <g id="line2d_134">
      <path d="M 92.425 533.910025 
L 1125 533.910025 
" clip-path="url(#p244d8c25d1)" style="fill: none; stroke: #b0b0b0; stroke-width: 0.8; stroke-linecap: square"/>
     </g>
     <g id="line2d_135">
      <g>
       <use xlink:href="#ma688785096" x="92.425" y="533.910025" style="stroke: #000000; stroke-width: 0.8"/>
      </g>
     </g>
     <g id="text_21">
      <!-- 20 -->
      <g transform="translate(72.7 537.709243)scale(0.1 -0.1)">
       <use xlink:href="#DejaVuSans-32"/>
       <use xlink:href="#DejaVuSans-30" x="63.623047"/>
      </g>
     </g>
    </g>
    <g id="ytick_7">
     <g id="line2d_136">
      <path d="M 92.425 493.329097 
L 1125 493.329097 
" clip-path="url(#p244d8c25d1)" style="fill: none; stroke: #b0b0b0; stroke-width: 0.8; stroke-linecap: square"/>
     </g>
     <g id="line2d_137">
      <g>
       <use xlink:href="#ma688785096" x="92.425" y="493.329097" style="stroke: #000000; stroke-width: 0.8"/>
      </g>
     </g>
     <g id="text_22">
      <!-- 40 -->
      <g transform="translate(72.7 497.128316)scale(0.1 -0.1)">
       <use xlink:href="#DejaVuSans-34"/>
       <use xlink:href="#DejaVuSans-30" x="63.623047"/>
      </g>
     </g>
    </g>
    <g id="ytick_8">
     <g id="line2d_138">
      <path d="M 92.425 452.74817 
L 1125 452.74817 
" clip-path="url(#p244d8c25d1)" style="fill: none; stroke: #b0b0b0; stroke-width: 0.8; stroke-linecap: square"/>
     </g>
     <g id="line2d_139">
      <g>
       <use xlink:href="#ma688785096" x="92.425" y="452.74817" style="stroke: #000000; stroke-width: 0.8"/>
      </g>
     </g>
     <g id="text_23">
      <!-- 60 -->
      <g transform="translate(72.7 456.547388)scale(0.1 -0.1)">
       <use xlink:href="#DejaVuSans-36"/>
       <use xlink:href="#DejaVuSans-30" x="63.623047"/>
      </g>
     </g>
    </g>
    <g id="ytick_9">
     <g id="line2d_140">
      <path d="M 92.425 412.167242 
L 1125 412.167242 
" clip-path="url(#p244d8c25d1)" style="fill: none; stroke: #b0b0b0; stroke-width: 0.8; stroke-linecap: square"/>
     </g>
     <g id="line2d_141">
      <g>
       <use xlink:href="#ma688785096" x="92.425" y="412.167242" style="stroke: #000000; stroke-width: 0.8"/>
      </g>
     </g>
     <g id="text_24">
      <!-- 80 -->
      <g transform="translate(72.7 415.966461)scale(0.1 -0.1)">
       <use xlink:href="#DejaVuSans-38"/>
       <use xlink:href="#DejaVuSans-30" x="63.623047"/>
      </g>
     </g>
    </g>
    <g id="ytick_10">
     <g id="line2d_142">
      <path d="M 92.425 371.586315 
L 1125 371.586315 
" clip-path="url(#p244d8c25d1)" style="fill: none; stroke: #b0b0b0; stroke-width: 0.8; stroke-linecap: square"/>
     </g>
     <g id="line2d_143">
      <g>
       <use xlink:href="#ma688785096" x="92.425" y="371.586315" style="stroke: #000000; stroke-width: 0.8"/>
      </g>
     </g>
     <g id="text_25">
      <!-- 100 -->
      <g transform="translate(66.3375 375.385534)scale(0.1 -0.1)">
       <use xlink:href="#DejaVuSans-31"/>
       <use xlink:href="#DejaVuSans-30" x="63.623047"/>
       <use xlink:href="#DejaVuSans-30" x="127.246094"/>
      </g>
     </g>
    </g>
   </g>
   <g id="line2d_144">
    <path d="M 139.360227 543.040733 
L 159.332664 527.417076 
L 179.305102 525.38803 
L 199.277539 526.808362 
L 219.249976 535.533262 
L 239.222413 559.881818 
L 259.19485 555.012107 
L 279.167287 553.38887 
L 299.139724 544.866875 
L 319.112162 529.040313 
L 339.084599 534.924548 
L 359.057036 532.489692 
L 379.029473 540.808782 
L 399.00191 558.66439 
L 418.974347 555.012107 
L 438.946784 550.954014 
L 458.919221 541.823305 
L 478.891659 535.939071 
L 498.864096 534.518739 
L 518.836533 533.098406 
L 538.80897 537.765213 
L 558.781407 551.562728 
L 578.753844 551.359823 
L 598.726281 549.533682 
L 618.698719 544.461066 
L 638.671156 535.939071 
L 658.643593 530.460646 
L 678.61603 538.982641 
L 698.588467 545.678494 
L 718.560904 548.722063 
L 738.533341 549.533682 
L 758.505779 552.983061 
L 778.478216 551.968537 
L 798.450653 548.113349 
L 818.42309 530.866455 
L 838.395527 534.721643 
L 858.367964 546.693017 
L 878.340401 547.70754 
L 898.312838 548.519158 
L 918.285276 546.287207 
L 938.257713 538.576831 
L 958.23015 533.70712 
L 978.202587 532.286788 
L 998.175024 533.70712 
L 1018.147461 538.171022 
L 1038.119898 554.200488 
L 1058.092336 554.809202 
L 1078.064773 555.620821 
" clip-path="url(#p244d8c25d1)" style="fill: none; stroke: #1f77b4; stroke-width: 1.5; stroke-linecap: square"/>
   </g>
   <g id="line2d_145">
    <path d="M 139.360227 449.501696 
L 159.332664 490.285528 
L 179.305102 493.126193 
L 199.277539 489.271004 
L 219.249976 446.661031 
L 239.222413 386.601258 
L 259.19485 388.224495 
L 279.167287 404.659771 
L 299.139724 449.501696 
L 319.112162 482.980961 
L 339.084599 483.792579 
L 359.057036 475.879298 
L 379.029473 438.74775 
L 399.00191 390.862255 
L 418.974347 400.195869 
L 438.946784 428.602518 
L 458.919221 450.922028 
L 478.891659 473.444443 
L 498.864096 488.256481 
L 518.836533 491.097146 
L 538.80897 457.414976 
L 558.781407 403.645247 
L 578.753844 411.152719 
L 598.726281 428.196709 
L 618.698719 447.06684 
L 638.671156 483.38677 
L 658.643593 468.371827 
L 678.61603 443.211652 
L 698.588467 406.891722 
L 718.560904 379.7025 
L 738.533341 379.905405 
L 758.505779 384.978021 
L 778.478216 389.847732 
L 798.450653 393.905825 
L 818.42309 476.082203 
L 838.395527 443.820366 
L 858.367964 412.167242 
L 878.340401 399.181345 
L 898.312838 404.456866 
L 918.285276 431.646087 
L 938.257713 455.588835 
L 958.23015 494.140716 
L 978.202587 506.720803 
L 998.175024 492.720383 
L 1018.147461 451.327837 
L 1038.119898 397.558108 
L 1058.092336 398.572632 
L 1078.064773 418.863095 
" clip-path="url(#p244d8c25d1)" style="fill: none; stroke: #ff7f0e; stroke-width: 1.5; stroke-linecap: square"/>
   </g>
   <g id="line2d_146">
    <path d="M 139.360227 372.945776 
L 159.332664 372.783452 
L 179.305102 373.047228 
L 199.277539 372.661709 
L 219.249976 372.174738 
L 239.222413 372.134157 
L 259.19485 371.464572 
L 279.167287 371.626896 
L 299.139724 372.742871 
L 319.112162 373.168971 
L 339.084599 372.519676 
L 359.057036 371.281958 
L 379.029473 371.079053 
L 399.00191 371.728348 
L 418.974347 371.890672 
L 438.946784 371.018182 
L 458.919221 371.748639 
L 478.891659 372.682 
L 498.864096 373.1081 
L 518.836533 371.971834 
L 538.80897 373.047228 
L 558.781407 372.621128 
L 578.753844 373.55449 
L 598.726281 371.647186 
L 618.698719 373.006647 
L 638.671156 372.458805 
L 658.643593 372.377643 
L 678.61603 373.351585 
L 698.588467 373.493618 
L 718.560904 373.858847 
L 738.533341 373.047228 
L 758.505779 372.803743 
L 778.478216 373.392166 
L 798.450653 374.041461 
L 818.42309 374.406689 
L 838.395527 373.229842 
L 858.367964 374.569013 
L 878.340401 374.548723 
L 898.312838 373.899428 
L 918.285276 373.290714 
L 938.257713 373.148681 
L 958.23015 373.189261 
L 978.202587 373.615361 
L 998.175024 374.386399 
L 1018.147461 372.864614 
L 1038.119898 373.087809 
L 1058.092336 373.879137 
L 1078.064773 372.499386 
" clip-path="url(#p244d8c25d1)" style="fill: none; stroke: #2ca02c; stroke-width: 1.5; stroke-linecap: square"/>
   </g>
   <g id="patch_8">
    <path d="M 92.425 569.325 
L 92.425 361.575 
" style="fill: none; stroke: #000000; stroke-width: 0.8; stroke-linejoin: miter; stroke-linecap: square"/>
   </g>
   <g id="patch_9">
    <path d="M 1125 569.325 
L 1125 361.575 
" style="fill: none; stroke: #000000; stroke-width: 0.8; stroke-linejoin: miter; stroke-linecap: square"/>
   </g>
   <g id="patch_10">
    <path d="M 92.425 569.325 
L 1125 569.325 
" style="fill: none; stroke: #000000; stroke-width: 0.8; stroke-linejoin: miter; stroke-linecap: square"/>
   </g>
   <g id="patch_11">
    <path d="M 92.425 361.575 
L 1125 361.575 
" style="fill: none; stroke: #000000; stroke-width: 0.8; stroke-linejoin: miter; stroke-linecap: square"/>
   </g>
   <g id="text_26">
    <!-- Mesures de notre Station Météo -->
    <g transform="translate(512.87375 355.575)scale(0.12 -0.12)">
     <defs>
      <path id="DejaVuSans-53" d="M 3425 4513 
L 3425 3897 
Q 3066 4069 2747 4153 
Q 2428 4238 2131 4238 
Q 1616 4238 1336 4038 
Q 1056 3838 1056 3469 
Q 1056 3159 1242 3001 
Q 1428 2844 1947 2747 
L 2328 2669 
Q 3034 2534 3370 2195 
Q 3706 1856 3706 1288 
Q 3706 609 3251 259 
Q 2797 -91 1919 -91 
Q 1588 -91 1214 -16 
Q 841 59 441 206 
L 441 856 
Q 825 641 1194 531 
Q 1563 422 1919 422 
Q 2459 422 2753 634 
Q 3047 847 3047 1241 
Q 3047 1584 2836 1778 
Q 2625 1972 2144 2069 
L 1759 2144 
Q 1053 2284 737 2584 
Q 422 2884 422 3419 
Q 422 4038 858 4394 
Q 1294 4750 2059 4750 
Q 2388 4750 2728 4690 
Q 3069 4631 3425 4513 
z
" transform="scale(0.015625)"/>
     </defs>
     <use xlink:href="#DejaVuSans-4d"/>
     <use xlink:href="#DejaVuSans-65" x="86.279297"/>
     <use xlink:href="#DejaVuSans-73" x="147.802734"/>
     <use xlink:href="#DejaVuSans-75" x="199.902344"/>
     <use xlink:href="#DejaVuSans-72" x="263.28125"/>
     <use xlink:href="#DejaVuSans-65" x="302.144531"/>
     <use xlink:href="#DejaVuSans-73" x="363.667969"/>
     <use xlink:href="#DejaVuSans-20" x="415.767578"/>
     <use xlink:href="#DejaVuSans-64" x="447.554688"/>
     <use xlink:href="#DejaVuSans-65" x="511.03125"/>
     <use xlink:href="#DejaVuSans-20" x="572.554688"/>
     <use xlink:href="#DejaVuSans-6e" x="604.341797"/>
     <use xlink:href="#DejaVuSans-6f" x="667.720703"/>
     <use xlink:href="#DejaVuSans-74" x="728.902344"/>
     <use xlink:href="#DejaVuSans-72" x="768.111328"/>
     <use xlink:href="#DejaVuSans-65" x="806.974609"/>
     <use xlink:href="#DejaVuSans-20" x="868.498047"/>
     <use xlink:href="#DejaVuSans-53" x="900.285156"/>
     <use xlink:href="#DejaVuSans-74" x="963.761719"/>
     <use xlink:href="#DejaVuSans-61" x="1002.970703"/>
     <use xlink:href="#DejaVuSans-74" x="1064.25"/>
     <use xlink:href="#DejaVuSans-69" x="1103.458984"/>
     <use xlink:href="#DejaVuSans-6f" x="1131.242188"/>
     <use xlink:href="#DejaVuSans-6e" x="1192.423828"/>
     <use xlink:href="#DejaVuSans-20" x="1255.802734"/>
     <use xlink:href="#DejaVuSans-4d" x="1287.589844"/>
     <use xlink:href="#DejaVuSans-e9" x="1373.869141"/>
     <use xlink:href="#DejaVuSans-74" x="1435.392578"/>
     <use xlink:href="#DejaVuSans-e9" x="1474.601562"/>
     <use xlink:href="#DejaVuSans-6f" x="1536.125"/>
    </g>
   </g>
  </g>
  <g id="text_27">
   <!-- Observations météorologiques de Saint Céré, du 2 au 7 mai 2022 -->
   <g transform="translate(292.27185 26.7813)scale(0.1728 -0.1728)">
    <defs>
     <path id="DejaVuSans-6c" d="M 603 4863 
L 1178 4863 
L 1178 0 
L 603 0 
L 603 4863 
z
" transform="scale(0.015625)"/>
     <path id="DejaVuSans-67" d="M 2906 1791 
Q 2906 2416 2648 2759 
Q 2391 3103 1925 3103 
Q 1463 3103 1205 2759 
Q 947 2416 947 1791 
Q 947 1169 1205 825 
Q 1463 481 1925 481 
Q 2391 481 2648 825 
Q 2906 1169 2906 1791 
z
M 3481 434 
Q 3481 -459 3084 -895 
Q 2688 -1331 1869 -1331 
Q 1566 -1331 1297 -1286 
Q 1028 -1241 775 -1147 
L 775 -588 
Q 1028 -725 1275 -790 
Q 1522 -856 1778 -856 
Q 2344 -856 2625 -561 
Q 2906 -266 2906 331 
L 2906 616 
Q 2728 306 2450 153 
Q 2172 0 1784 0 
Q 1141 0 747 490 
Q 353 981 353 1791 
Q 353 2603 747 3093 
Q 1141 3584 1784 3584 
Q 2172 3584 2450 3431 
Q 2728 3278 2906 2969 
L 2906 3500 
L 3481 3500 
L 3481 434 
z
" transform="scale(0.015625)"/>
     <path id="DejaVuSans-71" d="M 947 1747 
Q 947 1113 1208 752 
Q 1469 391 1925 391 
Q 2381 391 2643 752 
Q 2906 1113 2906 1747 
Q 2906 2381 2643 2742 
Q 2381 3103 1925 3103 
Q 1469 3103 1208 2742 
Q 947 2381 947 1747 
z
M 2906 525 
Q 2725 213 2448 61 
Q 2172 -91 1784 -91 
Q 1150 -91 751 415 
Q 353 922 353 1747 
Q 353 2572 751 3078 
Q 1150 3584 1784 3584 
Q 2172 3584 2448 3432 
Q 2725 3281 2906 2969 
L 2906 3500 
L 3481 3500 
L 3481 -1331 
L 2906 -1331 
L 2906 525 
z
" transform="scale(0.015625)"/>
     <path id="DejaVuSans-43" d="M 4122 4306 
L 4122 3641 
Q 3803 3938 3442 4084 
Q 3081 4231 2675 4231 
Q 1875 4231 1450 3742 
Q 1025 3253 1025 2328 
Q 1025 1406 1450 917 
Q 1875 428 2675 428 
Q 3081 428 3442 575 
Q 3803 722 4122 1019 
L 4122 359 
Q 3791 134 3420 21 
Q 3050 -91 2638 -91 
Q 1578 -91 968 557 
Q 359 1206 359 2328 
Q 359 3453 968 4101 
Q 1578 4750 2638 4750 
Q 3056 4750 3426 4639 
Q 3797 4528 4122 4306 
z
" transform="scale(0.015625)"/>
     <path id="DejaVuSans-2c" d="M 750 794 
L 1409 794 
L 1409 256 
L 897 -744 
L 494 -744 
L 750 256 
L 750 794 
z
" transform="scale(0.015625)"/>
    </defs>
    <use xlink:href="#DejaVuSans-4f"/>
    <use xlink:href="#DejaVuSans-62" x="78.710938"/>
    <use xlink:href="#DejaVuSans-73" x="142.1875"/>
    <use xlink:href="#DejaVuSans-65" x="194.287109"/>
    <use xlink:href="#DejaVuSans-72" x="255.810547"/>
    <use xlink:href="#DejaVuSans-76" x="296.923828"/>
    <use xlink:href="#DejaVuSans-61" x="356.103516"/>
    <use xlink:href="#DejaVuSans-74" x="417.382812"/>
    <use xlink:href="#DejaVuSans-69" x="456.591797"/>
    <use xlink:href="#DejaVuSans-6f" x="484.375"/>
    <use xlink:href="#DejaVuSans-6e" x="545.556641"/>
    <use xlink:href="#DejaVuSans-73" x="608.935547"/>
    <use xlink:href="#DejaVuSans-20" x="661.035156"/>
    <use xlink:href="#DejaVuSans-6d" x="692.822266"/>
    <use xlink:href="#DejaVuSans-e9" x="790.234375"/>
    <use xlink:href="#DejaVuSans-74" x="851.757812"/>
    <use xlink:href="#DejaVuSans-e9" x="890.966797"/>
    <use xlink:href="#DejaVuSans-6f" x="952.490234"/>
    <use xlink:href="#DejaVuSans-72" x="1013.671875"/>
    <use xlink:href="#DejaVuSans-6f" x="1052.535156"/>
    <use xlink:href="#DejaVuSans-6c" x="1113.716797"/>
    <use xlink:href="#DejaVuSans-6f" x="1141.5"/>
    <use xlink:href="#DejaVuSans-67" x="1202.681641"/>
    <use xlink:href="#DejaVuSans-69" x="1266.158203"/>
    <use xlink:href="#DejaVuSans-71" x="1293.941406"/>
    <use xlink:href="#DejaVuSans-75" x="1357.417969"/>
    <use xlink:href="#DejaVuSans-65" x="1420.796875"/>
    <use xlink:href="#DejaVuSans-73" x="1482.320312"/>
    <use xlink:href="#DejaVuSans-20" x="1534.419922"/>
    <use xlink:href="#DejaVuSans-64" x="1566.207031"/>
    <use xlink:href="#DejaVuSans-65" x="1629.683594"/>
    <use xlink:href="#DejaVuSans-20" x="1691.207031"/>
    <use xlink:href="#DejaVuSans-53" x="1722.994141"/>
    <use xlink:href="#DejaVuSans-61" x="1786.470703"/>
    <use xlink:href="#DejaVuSans-69" x="1847.75"/>
    <use xlink:href="#DejaVuSans-6e" x="1875.533203"/>
    <use xlink:href="#DejaVuSans-74" x="1938.912109"/>
    <use xlink:href="#DejaVuSans-20" x="1978.121094"/>
    <use xlink:href="#DejaVuSans-43" x="2009.908203"/>
    <use xlink:href="#DejaVuSans-e9" x="2079.732422"/>
    <use xlink:href="#DejaVuSans-72" x="2141.255859"/>
    <use xlink:href="#DejaVuSans-e9" x="2180.119141"/>
    <use xlink:href="#DejaVuSans-2c" x="2241.642578"/>
    <use xlink:href="#DejaVuSans-20" x="2273.429688"/>
    <use xlink:href="#DejaVuSans-64" x="2305.216797"/>
    <use xlink:href="#DejaVuSans-75" x="2368.693359"/>
    <use xlink:href="#DejaVuSans-20" x="2432.072266"/>
    <use xlink:href="#DejaVuSans-32" x="2463.859375"/>
    <use xlink:href="#DejaVuSans-20" x="2527.482422"/>
    <use xlink:href="#DejaVuSans-61" x="2559.269531"/>
    <use xlink:href="#DejaVuSans-75" x="2620.548828"/>
    <use xlink:href="#DejaVuSans-20" x="2683.927734"/>
    <use xlink:href="#DejaVuSans-37" x="2715.714844"/>
    <use xlink:href="#DejaVuSans-20" x="2779.337891"/>
    <use xlink:href="#DejaVuSans-6d" x="2811.125"/>
    <use xlink:href="#DejaVuSans-61" x="2908.537109"/>
    <use xlink:href="#DejaVuSans-69" x="2969.816406"/>
    <use xlink:href="#DejaVuSans-20" x="2997.599609"/>
    <use xlink:href="#DejaVuSans-32" x="3029.386719"/>
    <use xlink:href="#DejaVuSans-30" x="3093.009766"/>
    <use xlink:href="#DejaVuSans-32" x="3156.632812"/>
    <use xlink:href="#DejaVuSans-32" x="3220.255859"/>
   </g>
  </g>
  <g id="legend_1">
   <g id="patch_12">
    <path d="M 1011.028125 52.434375 
L 1145 52.434375 
Q 1147 52.434375 1147 50.434375 
L 1147 7 
Q 1147 5 1145 5 
L 1011.028125 5 
Q 1009.028125 5 1009.028125 7 
L 1009.028125 50.434375 
Q 1009.028125 52.434375 1011.028125 52.434375 
z
" style="fill: #ffffff; opacity: 0.8; stroke: #cccccc; stroke-linejoin: miter"/>
   </g>
   <g id="line2d_147">
    <path d="M 1013.028125 13.498438 
L 1023.028125 13.498438 
L 1033.028125 13.498438 
" style="fill: none; stroke: #1f77b4; stroke-width: 1.5; stroke-linecap: square"/>
   </g>
   <g id="text_28">
    <!-- Température (en °C) -->
    <g transform="translate(1041.028125 16.998438)scale(0.1 -0.1)">
     <defs>
      <path id="DejaVuSans-b0" d="M 1600 4347 
Q 1350 4347 1178 4173 
Q 1006 4000 1006 3750 
Q 1006 3503 1178 3333 
Q 1350 3163 1600 3163 
Q 1850 3163 2022 3333 
Q 2194 3503 2194 3750 
Q 2194 3997 2020 4172 
Q 1847 4347 1600 4347 
z
M 1600 4750 
Q 1800 4750 1984 4673 
Q 2169 4597 2303 4453 
Q 2447 4313 2519 4134 
Q 2591 3956 2591 3750 
Q 2591 3338 2302 3052 
Q 2013 2766 1594 2766 
Q 1172 2766 890 3047 
Q 609 3328 609 3750 
Q 609 4169 896 4459 
Q 1184 4750 1600 4750 
z
" transform="scale(0.015625)"/>
     </defs>
     <use xlink:href="#DejaVuSans-54"/>
     <use xlink:href="#DejaVuSans-65" x="44.083984"/>
     <use xlink:href="#DejaVuSans-6d" x="105.607422"/>
     <use xlink:href="#DejaVuSans-70" x="203.019531"/>
     <use xlink:href="#DejaVuSans-e9" x="266.496094"/>
     <use xlink:href="#DejaVuSans-72" x="328.019531"/>
     <use xlink:href="#DejaVuSans-61" x="369.132812"/>
     <use xlink:href="#DejaVuSans-74" x="430.412109"/>
     <use xlink:href="#DejaVuSans-75" x="469.621094"/>
     <use xlink:href="#DejaVuSans-72" x="533"/>
     <use xlink:href="#DejaVuSans-65" x="571.863281"/>
     <use xlink:href="#DejaVuSans-20" x="633.386719"/>
     <use xlink:href="#DejaVuSans-28" x="665.173828"/>
     <use xlink:href="#DejaVuSans-65" x="704.1875"/>
     <use xlink:href="#DejaVuSans-6e" x="765.710938"/>
     <use xlink:href="#DejaVuSans-20" x="829.089844"/>
     <use xlink:href="#DejaVuSans-b0" x="860.876953"/>
     <use xlink:href="#DejaVuSans-43" x="910.876953"/>
     <use xlink:href="#DejaVuSans-29" x="980.701172"/>
    </g>
   </g>
   <g id="line2d_148">
    <path d="M 1013.028125 28.176563 
L 1023.028125 28.176563 
L 1033.028125 28.176563 
" style="fill: none; stroke: #ff7f0e; stroke-width: 1.5; stroke-linecap: square"/>
   </g>
   <g id="text_29">
    <!-- Humidité (en %) -->
    <g transform="translate(1041.028125 31.676563)scale(0.1 -0.1)">
     <defs>
      <path id="DejaVuSans-48" d="M 628 4666 
L 1259 4666 
L 1259 2753 
L 3553 2753 
L 3553 4666 
L 4184 4666 
L 4184 0 
L 3553 0 
L 3553 2222 
L 1259 2222 
L 1259 0 
L 628 0 
L 628 4666 
z
" transform="scale(0.015625)"/>
      <path id="DejaVuSans-25" d="M 4653 2053 
Q 4381 2053 4226 1822 
Q 4072 1591 4072 1178 
Q 4072 772 4226 539 
Q 4381 306 4653 306 
Q 4919 306 5073 539 
Q 5228 772 5228 1178 
Q 5228 1588 5073 1820 
Q 4919 2053 4653 2053 
z
M 4653 2450 
Q 5147 2450 5437 2106 
Q 5728 1763 5728 1178 
Q 5728 594 5436 251 
Q 5144 -91 4653 -91 
Q 4153 -91 3862 251 
Q 3572 594 3572 1178 
Q 3572 1766 3864 2108 
Q 4156 2450 4653 2450 
z
M 1428 4353 
Q 1159 4353 1004 4120 
Q 850 3888 850 3481 
Q 850 3069 1003 2837 
Q 1156 2606 1428 2606 
Q 1700 2606 1854 2837 
Q 2009 3069 2009 3481 
Q 2009 3884 1853 4118 
Q 1697 4353 1428 4353 
z
M 4250 4750 
L 4750 4750 
L 1831 -91 
L 1331 -91 
L 4250 4750 
z
M 1428 4750 
Q 1922 4750 2215 4408 
Q 2509 4066 2509 3481 
Q 2509 2891 2217 2550 
Q 1925 2209 1428 2209 
Q 931 2209 642 2551 
Q 353 2894 353 3481 
Q 353 4063 643 4406 
Q 934 4750 1428 4750 
z
" transform="scale(0.015625)"/>
     </defs>
     <use xlink:href="#DejaVuSans-48"/>
     <use xlink:href="#DejaVuSans-75" x="75.195312"/>
     <use xlink:href="#DejaVuSans-6d" x="138.574219"/>
     <use xlink:href="#DejaVuSans-69" x="235.986328"/>
     <use xlink:href="#DejaVuSans-64" x="263.769531"/>
     <use xlink:href="#DejaVuSans-69" x="327.246094"/>
     <use xlink:href="#DejaVuSans-74" x="355.029297"/>
     <use xlink:href="#DejaVuSans-e9" x="394.238281"/>
     <use xlink:href="#DejaVuSans-20" x="455.761719"/>
     <use xlink:href="#DejaVuSans-28" x="487.548828"/>
     <use xlink:href="#DejaVuSans-65" x="526.5625"/>
     <use xlink:href="#DejaVuSans-6e" x="588.085938"/>
     <use xlink:href="#DejaVuSans-20" x="651.464844"/>
     <use xlink:href="#DejaVuSans-25" x="683.251953"/>
     <use xlink:href="#DejaVuSans-29" x="778.271484"/>
    </g>
   </g>
   <g id="line2d_149">
    <path d="M 1013.028125 42.854688 
L 1023.028125 42.854688 
L 1033.028125 42.854688 
" style="fill: none; stroke: #2ca02c; stroke-width: 1.5; stroke-linecap: square"/>
   </g>
   <g id="text_30">
    <!-- Pression (en kPa) -->
    <g transform="translate(1041.028125 46.354688)scale(0.1 -0.1)">
     <defs>
      <path id="DejaVuSans-50" d="M 1259 4147 
L 1259 2394 
L 2053 2394 
Q 2494 2394 2734 2622 
Q 2975 2850 2975 3272 
Q 2975 3691 2734 3919 
Q 2494 4147 2053 4147 
L 1259 4147 
z
M 628 4666 
L 2053 4666 
Q 2838 4666 3239 4311 
Q 3641 3956 3641 3272 
Q 3641 2581 3239 2228 
Q 2838 1875 2053 1875 
L 1259 1875 
L 1259 0 
L 628 0 
L 628 4666 
z
" transform="scale(0.015625)"/>
      <path id="DejaVuSans-6b" d="M 581 4863 
L 1159 4863 
L 1159 1991 
L 2875 3500 
L 3609 3500 
L 1753 1863 
L 3688 0 
L 2938 0 
L 1159 1709 
L 1159 0 
L 581 0 
L 581 4863 
z
" transform="scale(0.015625)"/>
     </defs>
     <use xlink:href="#DejaVuSans-50"/>
     <use xlink:href="#DejaVuSans-72" x="58.552734"/>
     <use xlink:href="#DejaVuSans-65" x="97.416016"/>
     <use xlink:href="#DejaVuSans-73" x="158.939453"/>
     <use xlink:href="#DejaVuSans-73" x="211.039062"/>
     <use xlink:href="#DejaVuSans-69" x="263.138672"/>
     <use xlink:href="#DejaVuSans-6f" x="290.921875"/>
     <use xlink:href="#DejaVuSans-6e" x="352.103516"/>
     <use xlink:href="#DejaVuSans-20" x="415.482422"/>
     <use xlink:href="#DejaVuSans-28" x="447.269531"/>
     <use xlink:href="#DejaVuSans-65" x="486.283203"/>
     <use xlink:href="#DejaVuSans-6e" x="547.806641"/>
     <use xlink:href="#DejaVuSans-20" x="611.185547"/>
     <use xlink:href="#DejaVuSans-6b" x="642.972656"/>
     <use xlink:href="#DejaVuSans-50" x="700.882812"/>
     <use xlink:href="#DejaVuSans-61" x="756.685547"/>
     <use xlink:href="#DejaVuSans-29" x="817.964844"/>
    </g>
   </g>
  </g>
 </g>
 <defs>
  <clipPath id="p049aa89964">
   <rect x="92.425" y="47.7" width="1032.575" height="207.75"/>
  </clipPath>
  <clipPath id="p244d8c25d1">
   <rect x="92.425" y="361.575" width="1032.575" height="207.75"/>
  </clipPath>
 </defs>
</svg>
